<?xml version="1.0" encoding="UTF-8"?>
<svg width="177px" height="49px" viewBox="0 0 177 49" version="1.1" xmlns="http://www.w3.org/2000/svg" xmlns:xlink="http://www.w3.org/1999/xlink">
    <!-- Generator: Sketch 45 (43475) - http://www.bohemiancoding.com/sketch -->
    <title>Apple Store bage</title>
    <desc>Created with Sketch.</desc>
    <defs></defs>
    <g id="Symbols" stroke="none" stroke-width="1" fill="none" fill-rule="evenodd">
        <g id="Apple-Store-bage" fill="#FFFFFF">
            <g id="Group">
                <path d="M28.3337519,22.3758856 C28.2864595,17.1439152 32.637364,14.5985446 32.8363184,14.480042 C30.3722192,10.9038613 26.5529469,10.415241 25.2108201,10.3762812 C22.003088,10.0402534 18.8915716,12.2869325 17.2575362,12.2869325 C15.5908854,12.2869325 13.0746014,10.4087477 10.3626246,10.4639407 C6.87276861,10.5175104 3.60795945,12.5288077 1.81736981,15.6520813 C-1.87796364,22.0203778 0.878044097,31.3788355 4.41845403,36.5263931 C6.18947439,39.0474138 8.25892635,41.8622561 10.9676416,41.7632334 C13.6176491,41.6544707 14.6075288,40.0814706 17.8054762,40.0814706 C20.9740697,40.0814706 21.9036108,41.7632334 24.6661416,41.6999238 C27.5102111,41.6544707 29.3008008,39.1675397 31.0098517,36.6237924 C33.0564729,33.7342773 33.8783829,30.8885919 33.9109983,30.7424928 C33.8441366,30.7197663 28.3875675,28.6467827 28.3337519,22.3758856 L28.3337519,22.3758856 Z" id="Shape"></path>
                <path d="M23.1152757,6.99002926 C24.540572,5.21573712 25.5157748,2.80185567 25.2450663,0.352261112 C23.1821375,0.443167206 20.6022533,1.77266882 19.1166184,3.50800122 C17.8022147,5.03717158 16.6280575,7.54358244 16.9313815,9.90064758 C19.248711,10.0727198 21.62801,8.73672492 23.1152757,6.99002926 L23.1152757,6.99002926 Z" id="Shape"></path>
            </g>
            <g id="Group" transform="translate(47.000000, 20.000000)">
                <path d="M18.8332716,21.7564444 L15.1604198,21.7564444 L13.1485185,15.4586111 L6.15538272,15.4586111 L4.23890123,21.7564444 L0.66308642,21.7564444 L7.59153086,0.315777778 L11.8708642,0.315777778 L18.8332716,21.7564444 L18.8332716,21.7564444 Z M12.542037,12.8163889 L10.7225926,7.21777778 C10.5301358,6.64583333 10.1694815,5.29894444 9.63739506,3.17872222 L9.5727037,3.17872222 C9.36083951,4.09061111 9.01959259,5.4375 8.55058025,7.21777778 L6.76348148,12.8163889 L12.542037,12.8163889 L12.542037,12.8163889 Z" id="Shape"></path>
                <path d="M36.6508889,13.8362222 C36.6508889,16.4655556 35.9376667,18.5438889 34.5112222,20.0696111 C33.2335679,21.4277778 31.6470123,22.1060556 29.7531728,22.1060556 C27.7089259,22.1060556 26.2404321,21.3746111 25.3460741,19.9117222 L25.2813827,19.9117222 L25.2813827,28.0558889 L21.8333333,28.0558889 L21.8333333,11.3857222 C21.8333333,9.73272222 21.7896667,8.03622222 21.7055679,6.29622222 L24.7379753,6.29622222 L24.9304321,8.74672222 L24.9951235,8.74672222 C26.1450123,6.90038889 27.8900617,5.97883333 30.2318889,5.97883333 C32.0626543,5.97883333 33.5909877,6.699 34.8136543,8.14094444 C36.0395556,9.5845 36.6508889,11.4823889 36.6508889,13.8362222 L36.6508889,13.8362222 Z M33.1381481,13.9618889 C33.1381481,12.4571111 32.7985185,11.2165556 32.1160247,10.2402222 C31.3704568,9.222 30.369358,8.71288889 29.1143457,8.71288889 C28.2636543,8.71288889 27.4905926,8.99644444 26.8000123,9.5555 C26.1078148,10.1193889 25.6549753,10.8556667 25.4431111,11.7675556 C25.3363704,12.1928889 25.283,12.5408889 25.283,12.8147778 L25.283,15.3925556 C25.283,16.5171111 25.6290988,17.4660556 26.3212963,18.241 C27.0134938,19.0159444 27.9127037,19.4026111 29.0189259,19.4026111 C30.3176049,19.4026111 31.3284074,18.9031667 32.0513333,17.9075 C32.7758765,16.9102222 33.1381481,15.5955556 33.1381481,13.9618889 L33.1381481,13.9618889 Z" id="Shape"></path>
                <path d="M54.5008519,13.8362222 C54.5008519,16.4655556 53.7876296,18.5438889 52.3595679,20.0696111 C51.0835309,21.4277778 49.4969753,22.1060556 47.6031358,22.1060556 C45.5588889,22.1060556 44.0903951,21.3746111 43.1976543,19.9117222 L43.132963,19.9117222 L43.132963,28.0558889 L39.6849136,28.0558889 L39.6849136,11.3857222 C39.6849136,9.73272222 39.6412469,8.03622222 39.5571481,6.29622222 L42.5895556,6.29622222 L42.7820123,8.74672222 L42.8467037,8.74672222 C43.9949753,6.90038889 45.7400247,5.97883333 48.0834691,5.97883333 C49.9126173,5.97883333 51.4409506,6.699 52.6668519,8.14094444 C53.8879012,9.5845 54.5008519,11.4823889 54.5008519,13.8362222 L54.5008519,13.8362222 Z M50.9881111,13.9618889 C50.9881111,12.4571111 50.6468642,11.2165556 49.9643704,10.2402222 C49.2188025,9.222 48.2209383,8.71288889 46.9643086,8.71288889 C46.112,8.71288889 45.3405556,8.99644444 44.648358,9.5555 C43.9561605,10.1193889 43.5049383,10.8556667 43.2930741,11.7675556 C43.1879506,12.1928889 43.132963,12.5408889 43.132963,12.8147778 L43.132963,15.3925556 C43.132963,16.5171111 43.4790617,17.4660556 44.1680247,18.241 C44.8602222,19.0143333 45.7594321,19.4026111 46.8688889,19.4026111 C48.1675679,19.4026111 49.1783704,18.9031667 49.9012963,17.9075 C50.6258395,16.9102222 50.9881111,15.5955556 50.9881111,13.9618889 L50.9881111,13.9618889 Z" id="Shape"></path>
                <path d="M74.4581358,15.7437778 C74.4581358,17.5675556 73.8225432,19.0513889 72.5465062,20.1968889 C71.144321,21.4487222 69.1922593,22.0738333 66.6838519,22.0738333 C64.3679012,22.0738333 62.5112593,21.6291667 61.1058395,20.7382222 L61.9047778,17.8752778 C63.4185556,18.7871667 65.0795062,19.2447222 66.8892469,19.2447222 C68.1879259,19.2447222 69.1987284,18.9515 69.9248889,18.3682778 C70.6478148,17.7850556 71.0084691,17.0020556 71.0084691,16.0257222 C71.0084691,15.1557222 70.7108889,14.4226667 70.1141111,13.8281667 C69.5205679,13.2336667 68.5291728,12.6810556 67.1447778,12.1703333 C63.3765062,10.7702778 61.4939877,8.71933333 61.4939877,6.02233333 C61.4939877,4.25977778 62.1538395,2.81461111 63.4751605,1.69005556 C64.7916296,0.563888889 66.548,0.00161111111 68.7442716,0.00161111111 C70.7028025,0.00161111111 72.3297901,0.341555556 73.6284691,1.01983333 L72.7664568,3.81994444 C71.5534938,3.16261111 70.182037,2.83394444 68.6472346,2.83394444 C67.4342716,2.83394444 66.4865432,3.132 65.807284,3.72488889 C65.2331481,4.25494444 64.9452716,4.901 64.9452716,5.66627778 C64.9452716,6.51372222 65.2735802,7.21455556 65.9334321,7.76555556 C66.5075679,8.27466667 67.550716,8.82566667 69.0644938,9.42016667 C70.916284,10.1628889 72.2764198,11.0312778 73.1513704,12.0269444 C74.0230864,13.0193889 74.4581358,14.2615556 74.4581358,15.7437778 L74.4581358,15.7437778 Z" id="Shape"></path>
                <path d="M85.8583704,8.874 L82.0577531,8.874 L82.0577531,16.3801667 C82.0577531,18.2893333 82.7273086,19.2431111 84.0696543,19.2431111 C84.6858395,19.2431111 85.1969012,19.1899444 85.6012222,19.0836111 L85.696642,21.692 C85.0173827,21.9449444 84.1230247,22.0722222 83.0151852,22.0722222 C81.6534321,22.0722222 80.5892593,21.6581667 79.8210494,20.8316667 C79.0560741,20.0035556 78.6711605,18.6147778 78.6711605,16.6637222 L78.6711605,8.87077778 L76.406963,8.87077778 L76.406963,6.293 L78.6711605,6.293 L78.6711605,3.46227778 L82.0577531,2.44405556 L82.0577531,6.293 L85.8583704,6.293 L85.8583704,8.874 L85.8583704,8.874 Z" id="Shape"></path>
                <path d="M103.006432,13.8990556 C103.006432,16.2754444 102.323938,18.2265 100.962185,19.7522222 C99.5341235,21.3230556 97.6386667,22.1060556 95.2758148,22.1060556 C92.998679,22.1060556 91.1857037,21.3536667 89.8336543,19.8488889 C88.4816049,18.3441111 87.8055802,16.4446111 87.8055802,14.1552222 C87.8055802,11.7595 88.5010123,9.79716667 89.8967284,8.27144444 C91.2892099,6.74411111 93.1684938,5.98044444 95.5313457,5.98044444 C97.8084815,5.98044444 99.6408642,6.73283333 101.023642,8.23922222 C102.34658,9.7005 103.006432,11.5871111 103.006432,13.8990556 L103.006432,13.8990556 Z M99.429,14.0102222 C99.429,12.5843889 99.1233333,11.3615556 98.5039136,10.3417222 C97.7809877,9.10761111 96.7475432,8.49216667 95.4084321,8.49216667 C94.0224198,8.49216667 92.9695679,9.10922222 92.246642,10.3417222 C91.6272222,11.3631667 91.3215556,12.6053333 91.3215556,14.0746667 C91.3215556,15.5005 91.6272222,16.7233333 92.246642,17.7415556 C92.9922099,18.9756667 94.0337407,19.5911111 95.3777037,19.5911111 C96.6941728,19.5911111 97.7276173,18.9627778 98.4731852,17.7093333 C99.1087778,16.6701667 99.429,15.4344444 99.429,14.0102222 L99.429,14.0102222 Z" id="Shape"></path>
                <path d="M114.21421,9.31705556 C113.872963,9.25422222 113.509074,9.222 113.127395,9.222 C111.914432,9.222 110.976407,9.67794444 110.316556,10.5914444 C109.74242,11.397 109.454543,12.4152222 109.454543,13.6445 L109.454543,21.7564444 L106.008111,21.7564444 L106.040457,11.165 C106.040457,9.38311111 105.99679,7.76072222 105.911074,6.29783333 L108.91437,6.29783333 L109.040519,9.25583333 L109.135938,9.25583333 C109.499827,8.23922222 110.073963,7.42077778 110.859963,6.80694444 C111.628173,6.25433333 112.45784,5.97883333 113.352198,5.97883333 C113.670802,5.97883333 113.958679,6.00138889 114.21421,6.04166667 L114.21421,9.31705556 L114.21421,9.31705556 Z" id="Shape"></path>
                <path d="M129.635012,13.2948889 C129.635012,13.9103333 129.59458,14.4291111 129.508864,14.8528333 L119.164716,14.8528333 C119.205148,16.3801667 119.704889,17.5482222 120.665556,18.3537778 C121.537272,19.0739444 122.664519,19.4348333 124.048914,19.4348333 C125.580481,19.4348333 126.977815,19.1915556 128.234444,18.7033889 L128.774617,21.0878333 C127.306123,21.7258333 125.572395,22.0432222 123.571815,22.0432222 C121.165296,22.0432222 119.276309,21.3375556 117.901617,19.9278333 C116.53016,18.5181111 115.842815,16.6250556 115.842815,14.2502778 C115.842815,11.919 116.481642,9.97761111 117.760914,8.42933333 C119.100025,6.77633333 120.909765,5.94983333 123.186901,5.94983333 C125.423605,5.94983333 127.116901,6.77633333 128.26679,8.42933333 C129.177321,9.74238889 129.635012,11.3663889 129.635012,13.2948889 L129.635012,13.2948889 Z M126.347074,12.4039444 C126.369716,11.3857222 126.144914,10.5060556 125.677519,9.76333333 C125.080741,8.80794444 124.163741,8.33105556 122.929753,8.33105556 C121.802506,8.33105556 120.885506,8.79666667 120.185222,9.73111111 C119.611086,10.4738333 119.26984,11.3647778 119.164716,12.4023333 L126.347074,12.4023333 L126.347074,12.4039444 Z" id="Shape"></path>
            </g>
            <g id="Group" transform="translate(49.000000, 0.000000)">
                <path d="M9.72594937,6.514625 C9.72594937,8.42725 9.15846835,9.867 8.02511392,10.833875 C6.97535443,11.726 5.48350633,12.172875 3.55117722,12.172875 C2.59305063,12.172875 1.77317722,12.130625 1.08673418,12.046125 L1.08673418,1.59575 C1.98216456,1.4495 2.94672152,1.37475 3.98844304,1.37475 C5.82913924,1.37475 7.21649367,1.779375 8.15211392,2.588625 C9.20026582,3.5035 9.72594937,4.811625 9.72594937,6.514625 L9.72594937,6.514625 Z M7.94955696,6.56175 C7.94955696,5.321875 7.62482278,4.37125 6.97535443,3.70825 C6.32588608,3.046875 5.37740506,2.715375 4.1283038,2.715375 C3.59779747,2.715375 3.14606329,2.751125 2.77149367,2.825875 L2.77149367,10.7705 C2.97887342,10.803 3.35826582,10.817625 3.90967089,10.817625 C5.19896203,10.817625 6.19406329,10.45525 6.89497468,9.7305 C7.59588608,9.00575 7.94955696,7.9495 7.94955696,6.56175 L7.94955696,6.56175 Z" id="Shape"></path>
                <path d="M19.1448481,8.185125 C19.1448481,9.36325 18.8120759,10.3285 18.1465316,11.08575 C17.4488354,11.864125 16.5244684,12.2525 15.3702152,12.2525 C14.2577595,12.2525 13.3719747,11.880375 12.7112532,11.132875 C12.0521392,10.387 11.7225823,9.446125 11.7225823,8.311875 C11.7225823,7.125625 12.0617848,6.15225 12.7434051,5.396625 C13.4250253,4.641 14.3413544,4.262375 15.4956076,4.262375 C16.6080633,4.262375 17.5018861,4.6345 18.1786835,5.380375 C18.8217215,6.105125 19.1448481,7.041125 19.1448481,8.185125 L19.1448481,8.185125 Z M17.3973924,8.240375 C17.3973924,7.5335 17.2462785,6.927375 16.9456582,6.422 C16.5919873,5.811 16.0888101,5.5055 15.434519,5.5055 C14.7577215,5.5055 14.2432911,5.811 13.8896203,6.422 C13.5873924,6.927375 13.4378861,7.54325 13.4378861,8.27125 C13.4378861,8.978125 13.589,9.58425 13.8896203,10.089625 C14.2545443,10.700625 14.7625443,11.006125 15.418443,11.006125 C16.061481,11.006125 16.5662658,10.69575 16.9295823,10.073375 C17.2414557,9.55825 17.3973924,8.94725 17.3973924,8.240375 L17.3973924,8.240375 Z" id="Shape"></path>
                <path d="M31.7741139,4.418375 L29.4029114,12.078625 L27.8596203,12.078625 L26.8773797,8.75225 C26.6282025,7.921875 26.4256456,7.096375 26.2681013,6.277375 L26.237557,6.277375 C26.0912658,7.119125 25.8887089,7.943 25.6282785,8.75225 L24.5849494,12.078625 L23.0239747,12.078625 L20.7942405,4.418375 L22.5256203,4.418375 L23.3824684,8.06 C23.5898481,8.92125 23.7602532,9.741875 23.8968987,10.518625 L23.927443,10.518625 C24.0528354,9.878375 24.2602152,9.062625 24.5527975,8.07625 L25.6282785,4.42 L27.0011646,4.42 L28.0316329,7.99825 C28.2808101,8.870875 28.4833671,9.711 28.6393038,10.52025 L28.6859241,10.52025 C28.8000633,9.732125 28.9720759,8.892 29.2003544,7.99825 L30.1198987,4.42 L31.7741139,4.42 L31.7741139,4.418375 Z" id="Shape"></path>
                <path d="M40.5081772,12.078625 L38.8234177,12.078625 L38.8234177,7.691125 C38.8234177,6.339125 38.3154177,5.663125 37.2962025,5.663125 C36.7962405,5.663125 36.3927342,5.848375 36.0792532,6.2205 C35.7689873,6.592625 35.611443,7.031375 35.611443,7.5335 L35.611443,12.077 L33.9266835,12.077 L33.9266835,6.60725 C33.9266835,5.9345 33.9057848,5.204875 33.8655949,4.415125 L35.3461899,4.415125 L35.424962,5.61275 L35.4715823,5.61275 C35.6677089,5.240625 35.9602911,4.9335 36.3445063,4.688125 C36.8010633,4.402125 37.3122785,4.2575 37.8717215,4.2575 C38.5790633,4.2575 39.167443,4.48825 39.6352532,4.951375 C40.2172025,5.5185 40.5081772,6.365125 40.5081772,7.489625 L40.5081772,12.078625 L40.5081772,12.078625 Z" id="Shape"></path>
                <polygon id="Shape" points="45.1541266 12.078625 43.4709747 12.078625 43.4709747 0.9035 45.1541266 0.9035"></polygon>
                <path d="M55.0729873,8.185125 C55.0729873,9.36325 54.7402152,10.3285 54.0746709,11.08575 C53.3769747,11.864125 52.451,12.2525 51.2983544,12.2525 C50.1842911,12.2525 49.2985063,11.880375 48.6393924,11.132875 C47.9802785,10.387 47.6507215,9.446125 47.6507215,8.311875 C47.6507215,7.125625 47.9899241,6.15225 48.6715443,5.396625 C49.3531646,4.641 50.2694937,4.262375 51.4221392,4.262375 C52.5362025,4.262375 53.4284177,4.6345 54.1068228,5.380375 C54.7498608,6.105125 55.0729873,7.041125 55.0729873,8.185125 L55.0729873,8.185125 Z M53.3239241,8.240375 C53.3239241,7.5335 53.1728101,6.927375 52.8721899,6.422 C52.5201266,5.811 52.0153418,5.5055 51.3626582,5.5055 C50.6842532,5.5055 50.1698228,5.811 49.8177595,6.422 C49.5155316,6.927375 49.3660253,7.54325 49.3660253,8.27125 C49.3660253,8.978125 49.5171392,9.58425 49.8177595,10.089625 C50.1826835,10.700625 50.6906835,11.006125 51.3465823,11.006125 C51.9896203,11.006125 52.4927975,10.69575 52.8561139,10.073375 C53.1695949,9.55825 53.3239241,8.94725 53.3239241,8.240375 L53.3239241,8.240375 Z" id="Shape"></path>
                <path d="M63.2267089,12.078625 L61.713962,12.078625 L61.5885696,11.19625 L61.5419494,11.19625 C61.0243038,11.899875 60.2864177,12.2525 59.3282911,12.2525 C58.6129114,12.2525 58.0341772,12.020125 57.598519,11.558625 C57.2030506,11.139375 57.0053165,10.61775 57.0053165,9.998625 C57.0053165,9.062625 57.3911392,8.34925 58.1676076,7.85525 C58.9424684,7.36125 60.0324177,7.119125 61.4358481,7.1305 L61.4358481,6.9875 C61.4358481,5.978375 60.9117722,5.474625 59.8620127,5.474625 C59.114481,5.474625 58.4553671,5.66475 57.8862785,6.04175 L57.5438608,4.92375 C58.2479873,4.483375 59.1176962,4.262375 60.1433418,4.262375 C62.1238987,4.262375 63.1173924,5.318625 63.1173924,7.431125 L63.1173924,10.252125 C63.1173924,11.0175 63.1543671,11.626875 63.2267089,12.078625 L63.2267089,12.078625 Z M61.4776456,9.446125 L61.4776456,8.26475 C59.6192658,8.23225 58.6900759,8.747375 58.6900759,9.8085 C58.6900759,10.20825 58.7961772,10.50725 59.0132025,10.707125 C59.2302278,10.907 59.5067342,11.006125 59.8362911,11.006125 C60.206038,11.006125 60.5516709,10.8875 60.8667595,10.651875 C61.1834557,10.414625 61.3779747,10.114 61.4503165,9.745125 C61.468,9.66225 61.4776456,9.5615 61.4776456,9.446125 L61.4776456,9.446125 Z" id="Shape"></path>
                <path d="M72.7999367,12.078625 L71.3048734,12.078625 L71.2261013,10.8485 L71.179481,10.8485 C70.7020253,11.7845 69.8885823,12.2525 68.7455823,12.2525 C67.8324684,12.2525 67.0720759,11.890125 66.4692278,11.165375 C65.8663797,10.440625 65.5657595,9.49975 65.5657595,8.344375 C65.5657595,7.1045 65.8921013,6.10025 66.548,5.33325 C67.183,4.61825 67.9610759,4.26075 68.8870506,4.26075 C69.9046582,4.26075 70.6168228,4.606875 71.0219367,5.30075 L71.0540886,5.30075 L71.0540886,0.9035 L72.7404557,0.9035 L72.7404557,10.014875 C72.7404557,10.76075 72.7597468,11.448125 72.7999367,12.078625 L72.7999367,12.078625 Z M71.0540886,8.848125 L71.0540886,7.570875 C71.0540886,7.349875 71.0380127,7.171125 71.0074684,7.034625 C70.9126203,6.625125 70.7084557,6.280625 70.3981899,6.00275 C70.0847089,5.724875 69.7069241,5.585125 69.2712658,5.585125 C68.6426962,5.585125 68.1507722,5.837 67.7890633,6.342375 C67.4305696,6.84775 67.2489114,7.492875 67.2489114,8.281 C67.2489114,9.03825 67.4209241,9.6525 67.766557,10.125375 C68.131481,10.629125 68.6234051,10.881 69.2391139,10.881 C69.7921266,10.881 70.2342152,10.671375 70.5702025,10.2505 C70.8949367,9.862125 71.0540886,9.394125 71.0540886,8.848125 L71.0540886,8.848125 Z" id="Shape"></path>
                <path d="M87.2088101,8.185125 C87.2088101,9.36325 86.876038,10.3285 86.2104937,11.08575 C85.5127975,11.864125 84.590038,12.2525 83.4341772,12.2525 C82.3233291,12.2525 81.4375443,11.880375 80.7752152,11.132875 C80.1161013,10.387 79.7865443,9.446125 79.7865443,8.311875 C79.7865443,7.125625 80.1257468,6.15225 80.8073671,5.396625 C81.4889873,4.641 82.4053165,4.262375 83.5611772,4.262375 C84.6720253,4.262375 85.5674557,4.6345 86.2426456,5.380375 C86.8856835,6.105125 87.2088101,7.041125 87.2088101,8.185125 L87.2088101,8.185125 Z M85.462962,8.240375 C85.462962,7.5335 85.3118481,6.927375 85.0112278,6.422 C84.6559494,5.811 84.1543797,5.5055 83.498481,5.5055 C82.8232911,5.5055 82.3088608,5.811 81.9535823,6.422 C81.6513544,6.927375 81.5018481,7.54325 81.5018481,8.27125 C81.5018481,8.978125 81.652962,9.58425 81.9535823,10.089625 C82.3185063,10.700625 82.8265063,11.006125 83.4824051,11.006125 C84.125443,11.006125 84.6318354,10.69575 84.9951519,10.073375 C85.3054177,9.55825 85.462962,8.94725 85.462962,8.240375 L85.462962,8.240375 Z" id="Shape"></path>
                <path d="M96.2676076,12.078625 L94.5844557,12.078625 L94.5844557,7.691125 C94.5844557,6.339125 94.0764557,5.663125 93.0556329,5.663125 C92.5556709,5.663125 92.1521646,5.848375 91.8402911,6.2205 C91.5284177,6.592625 91.372481,7.031375 91.372481,7.5335 L91.372481,12.077 L89.6861139,12.077 L89.6861139,6.60725 C89.6861139,5.9345 89.6668228,5.204875 89.6266329,4.415125 L91.1056203,4.415125 L91.1843924,5.61275 L91.2310127,5.61275 C91.4287468,5.240625 91.7213291,4.9335 92.1039367,4.688125 C92.5621013,4.402125 93.0717089,4.2575 93.6327595,4.2575 C94.3384937,4.2575 94.9268734,4.48825 95.3946835,4.951375 C95.9782405,5.5185 96.2676076,6.365125 96.2676076,7.489625 L96.2676076,12.078625 L96.2676076,12.078625 Z" id="Shape"></path>
                <path d="M107.605975,5.694 L105.75081,5.694 L105.75081,9.41525 C105.75081,10.361 106.080367,10.833875 106.733051,10.833875 C107.035278,10.833875 107.286063,10.807875 107.483797,10.75425 L107.527203,12.046125 C107.19443,12.172875 106.757165,12.23625 106.21862,12.23625 C105.553076,12.23625 105.03543,12.0315 104.660861,11.622 C104.284684,11.2125 104.098203,10.5235 104.098203,9.556625 L104.098203,5.694 L102.99057,5.694 L102.99057,4.418375 L104.098203,4.418375 L104.098203,3.014375 L105.749203,2.510625 L105.749203,4.41675 L107.604367,4.41675 L107.604367,5.694 L107.605975,5.694 Z" id="Shape"></path>
                <path d="M116.524911,12.078625 L114.838544,12.078625 L114.838544,7.723625 C114.838544,6.3505 114.330544,5.663125 113.312937,5.663125 C112.531646,5.663125 111.997924,6.06125 111.705342,6.8575 C111.655506,7.024875 111.62657,7.229625 111.62657,7.470125 L111.62657,12.077 L109.943418,12.077 L109.943418,0.9035 L111.62657,0.9035 L111.62657,5.520125 L111.658722,5.520125 C112.189228,4.68 112.94962,4.26075 113.935076,4.26075 C114.632772,4.26075 115.209899,4.4915 115.668063,4.954625 C116.238759,5.5315 116.524911,6.3895 116.524911,7.52375 L116.524911,12.078625 L116.524911,12.078625 Z" id="Shape"></path>
                <path d="M125.725177,7.886125 C125.725177,8.191625 125.702671,8.448375 125.662481,8.658 L120.60981,8.658 C120.632316,9.41525 120.873456,9.992125 121.341266,10.391875 C121.768886,10.749375 122.320291,10.928125 122.995481,10.928125 C123.743013,10.928125 124.424633,10.807875 125.038734,10.56575 L125.30238,11.74875 C124.583785,12.064 123.73819,12.221625 122.759165,12.221625 C121.58562,12.221625 120.661253,11.87225 119.992494,11.1735 C119.320519,10.47475 118.987747,9.537125 118.987747,8.360625 C118.987747,7.20525 119.298013,6.24325 119.923367,5.47625 C120.576051,4.65725 121.45862,4.24775 122.572684,4.24775 C123.662633,4.24775 124.490544,4.65725 125.049987,5.47625 C125.501722,6.12625 125.725177,6.930625 125.725177,7.886125 L125.725177,7.886125 Z M124.117582,7.44575 C124.130443,6.940375 124.019519,6.504875 123.791241,6.137625 C123.498658,5.66475 123.053354,5.4275 122.450506,5.4275 C121.900709,5.4275 121.45219,5.65825 121.109772,6.121375 C120.830051,6.49025 120.664468,6.930625 120.60981,7.44575 L124.117582,7.44575 L124.117582,7.44575 Z" id="Shape"></path>
            </g>
        </g>
    </g>
</svg>