<svg width="177" height="49" viewBox="0 0 177 49" xmlns="http://www.w3.org/2000/svg"><title>Apple Store bage</title><g fill="#FFF" fill-rule="evenodd"><path d="M28.334 22.376c-.048-5.232 4.303-7.777 4.502-7.896-2.464-3.576-6.283-4.065-7.625-4.104-3.208-.336-6.32 1.91-7.953 1.91-1.667 0-4.183-1.877-6.895-1.822-3.49.054-6.755 2.065-8.546 5.188C-1.878 22.02.878 31.38 4.418 36.526c1.771 2.521 3.84 5.336 6.55 5.237 2.65-.109 3.64-1.682 6.837-1.682 3.17 0 4.099 1.682 6.861 1.619 2.844-.046 4.635-2.532 6.344-5.076 2.046-2.89 2.868-5.735 2.901-5.882-.067-.022-5.523-2.095-5.577-8.366zM23.115 6.99c1.426-1.774 2.4-4.188 2.13-6.638-2.063.091-4.643 1.42-6.128 3.156-1.315 1.53-2.489 4.036-2.186 6.393 2.318.172 4.697-1.164 6.184-2.911zM65.833 41.756H62.16L60.15 35.46h-6.994l-1.916 6.297h-3.576l6.929-21.44h4.279l6.962 21.44zm-6.291-8.94l-1.82-5.598c-.192-.572-.553-1.92-1.085-4.04h-.064c-.212.913-.553 2.26-1.022 4.04l-1.788 5.598h5.779zM83.65 33.836c0 2.63-.712 4.708-2.139 6.234-1.277 1.358-2.864 2.036-4.758 2.036-2.044 0-3.513-.731-4.407-2.194h-.065v8.144h-3.448v-16.67c0-1.653-.043-3.35-.127-5.09h3.032l.192 2.45h.065c1.15-1.846 2.895-2.767 5.237-2.767 1.83 0 3.359.72 4.582 2.162 1.226 1.444 1.837 3.341 1.837 5.695zm-3.512.126c0-1.505-.34-2.745-1.022-3.722-.746-1.018-1.747-1.527-3.002-1.527-.85 0-1.623.283-2.314.843-.692.563-1.145 1.3-1.357 2.212-.107.425-.16.773-.16 1.047v2.578c0 1.124.346 2.073 1.038 2.848.692.775 1.592 1.162 2.698 1.162 1.299 0 2.31-.5 3.032-1.495.725-.998 1.087-2.312 1.087-3.946zM101.5 33.836c0 2.63-.712 4.708-2.14 6.234-1.276 1.358-2.863 2.036-4.757 2.036-2.044 0-3.513-.731-4.405-2.194h-.065v8.144h-3.448v-16.67c0-1.653-.044-3.35-.128-5.09h3.033l.192 2.45h.065c1.148-1.846 2.893-2.767 5.236-2.767 1.83 0 3.358.72 4.584 2.162 1.22 1.444 1.834 3.341 1.834 5.695zm-3.512.126c0-1.505-.341-2.745-1.024-3.722-.745-1.018-1.743-1.527-3-1.527-.852 0-1.623.283-2.316.843-.692.563-1.143 1.3-1.355 2.212-.105.425-.16.773-.16 1.047v2.578c0 1.124.346 2.073 1.035 2.848.692.773 1.591 1.162 2.7 1.162 1.3 0 2.31-.5 3.033-1.495.725-.998 1.087-2.312 1.087-3.946zM121.458 35.744c0 1.824-.635 3.307-1.911 4.453-1.403 1.252-3.355 1.877-5.863 1.877-2.316 0-4.173-.445-5.578-1.336l.799-2.863c1.514.912 3.175 1.37 4.984 1.37 1.299 0 2.31-.293 3.036-.877.723-.583 1.083-1.366 1.083-2.342 0-.87-.297-1.603-.894-2.198-.593-.594-1.585-1.147-2.97-1.658-3.767-1.4-5.65-3.45-5.65-6.148 0-1.762.66-3.207 1.981-4.332 1.317-1.126 3.073-1.688 5.27-1.688 1.958 0 3.585.34 4.883 1.018l-.862 2.8c-1.213-.657-2.584-.986-4.119-.986-1.213 0-2.16.298-2.84.89-.574.53-.862 1.177-.862 1.942 0 .848.329 1.549.988 2.1.575.509 1.618 1.06 3.131 1.654 1.852.743 3.212 1.611 4.087 2.607.872.992 1.307 2.235 1.307 3.717zM132.858 28.874h-3.8v7.506c0 1.91.67 2.863 2.012 2.863.616 0 1.127-.053 1.531-.16l.096 2.609c-.68.253-1.574.38-2.682.38-1.362 0-2.426-.414-3.194-1.24-.765-.828-1.15-2.217-1.15-4.168V28.87h-2.264v-2.578h2.264v-2.83l3.387-1.019v3.849h3.8v2.581zM150.006 33.9c0 2.375-.682 4.326-2.044 5.852-1.428 1.571-3.323 2.354-5.686 2.354-2.277 0-4.09-.752-5.442-2.257-1.352-1.505-2.028-3.404-2.028-5.694 0-2.396.695-4.358 2.09-5.884 1.393-1.527 3.272-2.29 5.635-2.29 2.277 0 4.11.752 5.493 2.258 1.323 1.461 1.982 3.348 1.982 5.66zm-3.577.11c0-1.426-.306-2.648-.925-3.668-.723-1.234-1.756-1.85-3.096-1.85-1.386 0-2.438.617-3.161 1.85-.62 1.021-.925 2.263-.925 3.733 0 1.425.305 2.648.925 3.667.745 1.234 1.787 1.85 3.13 1.85 1.317 0 2.35-.63 3.096-1.883.636-1.039.956-2.275.956-3.699zM161.214 29.317a6.01 6.01 0 0 0-1.087-.095c-1.213 0-2.15.456-2.81 1.37-.575.805-.862 1.823-.862 3.053v8.111h-3.447l.032-10.591c0-1.782-.043-3.404-.129-4.867h3.003l.127 2.958h.095c.364-1.017.938-1.835 1.724-2.45.768-.552 1.598-.827 2.492-.827.319 0 .607.022.862.063v3.275zM176.635 33.295c0 .615-.04 1.134-.126 1.558h-10.344c.04 1.527.54 2.695 1.5 3.5.872.72 2 1.082 3.384 1.082 1.531 0 2.929-.243 4.185-.732l.54 2.385c-1.468.638-3.202.955-5.202.955-2.407 0-4.296-.705-5.67-2.115-1.372-1.41-2.06-3.303-2.06-5.678 0-2.331.64-4.272 1.919-5.82 1.339-1.654 3.149-2.48 5.426-2.48 2.237 0 3.93.826 5.08 2.48.91 1.312 1.368 2.936 1.368 4.865zm-3.288-.891c.023-1.018-.202-1.898-.67-2.64-.596-.956-1.513-1.433-2.747-1.433-1.127 0-2.044.466-2.745 1.4-.574.743-.915 1.634-1.02 2.671h7.182v.002z"/><g><path d="M58.726 6.515c0 1.912-.568 3.352-1.7 4.319-1.05.892-2.542 1.339-4.475 1.339-.958 0-1.778-.042-2.464-.127V1.596c.895-.147 1.86-.221 2.901-.221 1.841 0 3.228.404 4.164 1.214 1.048.914 1.574 2.223 1.574 3.926zm-1.776.047c0-1.24-.325-2.19-.975-2.854-.65-.661-1.598-.993-2.847-.993-.53 0-.982.036-1.357.11v7.946c.208.032.587.047 1.139.047 1.289 0 2.284-.363 2.985-1.088.7-.724 1.055-1.78 1.055-3.168zM68.145 8.185c0 1.178-.333 2.143-.998 2.9-.698.78-1.623 1.167-2.777 1.167-1.112 0-1.998-.372-2.659-1.12-.659-.745-.988-1.686-.988-2.82 0-1.186.339-2.16 1.02-2.915.682-.756 1.598-1.135 2.753-1.135 1.112 0 2.006.373 2.683 1.118.643.725.966 1.661.966 2.805zm-1.748.055c0-.707-.15-1.313-.451-1.818-.354-.611-.857-.917-1.511-.917-.677 0-1.192.306-1.545.917-.303.505-.452 1.121-.452 1.85 0 .706.151 1.312.452 1.818.365.61.873.916 1.528.916.643 0 1.148-.31 1.512-.933.311-.515.467-1.126.467-1.833zM80.774 4.418l-2.371 7.66H76.86l-.983-3.326c-.249-.83-.451-1.656-.609-2.475h-.03a18.28 18.28 0 0 1-.61 2.475l-1.043 3.327h-1.561l-2.23-7.66h1.732l.856 3.641c.208.861.378 1.682.515 2.459h.03c.126-.64.333-1.456.626-2.443l1.075-3.656h1.373l1.03 3.578c.25.873.452 1.713.608 2.522h.047c.114-.788.286-1.628.514-2.522l.92-3.578h1.654v-.002zM89.508 12.079h-1.685V7.69c0-1.352-.508-2.028-1.527-2.028-.5 0-.903.185-1.217.558a1.99 1.99 0 0 0-.468 1.313v4.543h-1.684v-5.47c0-.673-.021-1.402-.061-2.192h1.48l.079 1.198h.047a2.45 2.45 0 0 1 .873-.925c.456-.286.967-.43 1.527-.43.707 0 1.295.23 1.763.693.582.568.873 1.414.873 2.539v4.589zM94.154 12.079h-1.683V.903h1.683zM104.073 8.185c0 1.178-.333 2.143-.998 2.9-.698.78-1.624 1.167-2.777 1.167-1.114 0-2-.372-2.659-1.12-.659-.745-.988-1.686-.988-2.82 0-1.186.339-2.16 1.02-2.915.682-.756 1.598-1.135 2.751-1.135 1.114 0 2.006.373 2.685 1.118.643.725.966 1.661.966 2.805zm-1.75.055c0-.707-.15-1.313-.45-1.818-.353-.611-.858-.917-1.51-.917-.679 0-1.193.306-1.545.917-.302.505-.452 1.121-.452 1.85 0 .706.151 1.312.452 1.818.365.61.873.916 1.529.916.643 0 1.146-.31 1.51-.933.313-.515.467-1.126.467-1.833zM112.227 12.079h-1.513l-.125-.883h-.047c-.518.704-1.256 1.056-2.214 1.056-.715 0-1.294-.232-1.73-.693-.395-.42-.593-.941-.593-1.56 0-.936.386-1.65 1.163-2.144.774-.494 1.864-.736 3.268-.725v-.143c0-1.009-.524-1.512-1.574-1.512-.748 0-1.407.19-1.976.567l-.342-1.118c.704-.44 1.574-.662 2.6-.662 1.98 0 2.973 1.057 2.973 3.17v2.82c0 .765.037 1.375.11 1.827zm-1.75-2.633V8.265c-1.858-.033-2.787.482-2.787 1.543 0 .4.106.7.323.9.217.199.494.298.823.298.37 0 .716-.119 1.03-.354a1.452 1.452 0 0 0 .612-1.206zM121.8 12.079h-1.495l-.079-1.23h-.047c-.477.935-1.29 1.403-2.433 1.403-.914 0-1.674-.362-2.277-1.087-.603-.724-.903-1.665-.903-2.82 0-1.24.326-2.245.982-3.012.635-.715 1.413-1.072 2.34-1.072 1.017 0 1.729.346 2.134 1.04h.032V.904h1.686v9.11c0 .747.02 1.434.06 2.065zm-1.746-3.23V7.57c0-.221-.016-.4-.047-.536a1.944 1.944 0 0 0-.609-1.032 1.646 1.646 0 0 0-1.127-.418c-.628 0-1.12.252-1.482.757-.358.506-.54 1.15-.54 1.939 0 .757.172 1.371.518 1.844.364.504.856.756 1.472.756.553 0 .995-.21 1.331-.63.325-.389.484-.857.484-1.403zM136.209 8.185c0 1.178-.333 2.143-.999 2.9-.697.78-1.62 1.167-2.776 1.167-1.11 0-1.996-.372-2.659-1.12-.659-.745-.988-1.686-.988-2.82 0-1.186.339-2.16 1.02-2.915.682-.756 1.598-1.135 2.754-1.135 1.111 0 2.006.373 2.682 1.118.643.725.966 1.661.966 2.805zm-1.746.055c0-.707-.151-1.313-.452-1.818-.355-.611-.857-.917-1.513-.917-.675 0-1.19.306-1.544.917-.303.505-.452 1.121-.452 1.85 0 .706.151 1.312.452 1.818.365.61.873.916 1.528.916.643 0 1.15-.31 1.513-.933.31-.515.468-1.126.468-1.833zM145.268 12.079h-1.684V7.69c0-1.352-.508-2.028-1.528-2.028-.5 0-.904.185-1.216.558-.312.372-.468.81-.468 1.313v4.543h-1.686v-5.47c0-.673-.02-1.402-.06-2.192h1.48l.078 1.198h.047c.198-.372.49-.68.873-.925a2.83 2.83 0 0 1 1.529-.43c.705 0 1.294.23 1.762.693.583.568.873 1.414.873 2.539v4.589zM156.606 5.694h-1.855v3.721c0 .946.33 1.419.982 1.419.302 0 .553-.026.75-.08l.044 1.292c-.333.127-.77.19-1.308.19-.666 0-1.184-.205-1.558-.614-.376-.41-.563-1.098-.563-2.065V5.694h-1.107V4.418h1.107V3.014l1.651-.503v1.906h1.855v1.277h.002zM165.525 12.079h-1.686V7.724c0-1.373-.508-2.06-1.526-2.06-.781 0-1.315.397-1.608 1.194-.05.167-.078.372-.078.612v4.607h-1.684V.903h1.684V5.52h.032c.53-.84 1.29-1.26 2.276-1.26.698 0 1.275.232 1.733.695.57.577.857 1.434.857 2.569v4.555zM174.725 7.886c0 .306-.022.562-.063.772h-5.052c.022.757.263 1.334.731 1.734.428.357.98.536 1.654.536.748 0 1.43-.12 2.044-.362l.263 1.183c-.718.315-1.564.473-2.543.473-1.173 0-2.098-.35-2.767-1.048-.671-.7-1.004-1.637-1.004-2.813 0-1.156.31-2.118.935-2.885.653-.819 1.536-1.228 2.65-1.228 1.09 0 1.918.41 2.477 1.228.452.65.675 1.455.675 2.41zm-1.607-.44c.012-.506-.098-.941-.327-1.308-.292-.473-.738-.71-1.34-.71-.55 0-.999.23-1.341.693-.28.37-.446.81-.5 1.325h3.508z"/></g></g></svg>