<?xml version="1.0" encoding="UTF-8"?>
<svg width="343px" height="52px" viewBox="0 0 343 52" version="1.1" xmlns="http://www.w3.org/2000/svg" xmlns:xlink="http://www.w3.org/1999/xlink">
    <!-- Generator: Sketch 45 (43475) - http://www.bohemiancoding.com/sketch -->
    <title>Group 5</title>
    <desc>Created with Sketch.</desc>
    <defs>
        <linearGradient x1="0%" y1="50%" x2="81.0038158%" y2="50%" id="linearGradient-1">
            <stop stop-color="#2568EC" offset="0%"></stop>
            <stop stop-color="#2DC1F7" offset="100%"></stop>
        </linearGradient>
        <path d="M26,0 L317,0 L317,3.55271368e-15 C331.359403,9.15066634e-16 343,11.6405965 343,26 L343,26 L343,26 C343,40.3594035 331.359403,52 317,52 L292.765548,52 L26,52 L26,52 C11.6405965,52 1.75851975e-15,40.3594035 0,26 L0,26 L0,26 C-8.13537591e-15,11.6405965 11.6405965,-4.46778031e-15 26,-7.10542736e-15 Z" id="path-2"></path>
        <filter x="-3.9%" y="-26.0%" width="107.9%" height="151.9%" filterUnits="objectBoundingBox" id="filter-3">
            <feGaussianBlur stdDeviation="10.5" in="SourceAlpha" result="shadowBlurInner1"></feGaussianBlur>
            <feOffset dx="6" dy="-6" in="shadowBlurInner1" result="shadowOffsetInner1"></feOffset>
            <feComposite in="shadowOffsetInner1" in2="SourceAlpha" operator="arithmetic" k2="-1" k3="1" result="shadowInnerInner1"></feComposite>
            <feColorMatrix values="0 0 0 0 0   0 0 0 0 0   0 0 0 0 0  0 0 0 0.20813519 0" type="matrix" in="shadowInnerInner1"></feColorMatrix>
        </filter>
    </defs>
    <g id="Symbols" stroke="none" stroke-width="1" fill="none" fill-rule="evenodd">
        <g id="best-apple-store">
            <g id="Group-5">
                <g id="Rectangle-33">
                    <use fill="url(#linearGradient-1)" fill-rule="evenodd" xlink:href="#path-2"></use>
                    <use fill="black" fill-opacity="1" filter="url(#filter-3)" xlink:href="#path-2"></use>
                </g>
                <g id="Group" transform="translate(183.000000, 10.000000)" fill="#FFFFFF">
                    <path d="M18.3336042,14.9172571 C18.3030032,11.4292768 21.1182944,9.73236309 21.2470296,9.65336136 C19.6526124,7.26924084 17.1813186,6.943494 16.3128836,6.91752083 C14.2372922,6.69350225 12.2239581,8.19128836 11.1666411,8.19128836 C10.08822,8.19128836 8.4600362,6.93916514 6.70522766,6.97596046 C4.44708557,7.01167357 2.334562,8.35253845 1.17594517,10.4347209 C-1.21515294,14.6802519 0.56814618,20.9192237 2.85899967,24.3509287 C4.00495402,26.0316092 5.34401117,27.9081707 7.0967093,27.8421556 C8.81141999,27.7696471 9.45193039,26.7209804 11.5211905,26.7209804 C13.5714569,26.7209804 14.1729246,27.8421556 15.9604446,27.7999492 C17.8007249,27.7696471 18.9593417,26.1116932 20.0651982,24.4158616 C21.3894824,22.4895182 21.9213066,20.5923946 21.9424107,20.4949952 C21.8991472,20.4798442 18.368426,19.0978552 18.3336042,14.9172571 L18.3336042,14.9172571 Z" id="Shape"></path>
                    <path d="M14.9569431,4.66001951 C15.8791937,3.47715808 16.5102072,1.86790378 16.3350429,0.234840742 C15.0002066,0.295444804 13.3308698,1.18177922 12.3695766,2.33866748 C11.5190801,3.35811438 10.7593313,5.02905496 10.9555998,6.60043172 C12.4550483,6.71514655 13.9945947,5.82448328 14.9569431,4.66001951 L14.9569431,4.66001951 Z" id="Shape"></path>
                </g>
                <g id="Group" transform="translate(217.000000, 17.000000)" fill="#FFFFFF">
                    <path d="M13.8014815,15.7546667 L11.1099259,15.7546667 L9.63555556,11.1941667 L4.51081481,11.1941667 L3.10637037,15.7546667 L0.485925926,15.7546667 L5.56325926,0.228666667 L8.69925926,0.228666667 L13.8014815,15.7546667 L13.8014815,15.7546667 Z M9.19111111,9.28083333 L7.85777778,5.22666667 C7.71674074,4.8125 7.45244444,3.83716667 7.06251852,2.30183333 L7.01511111,2.30183333 C6.85985185,2.96216667 6.60977778,3.9375 6.26607407,5.22666667 L4.95644444,9.28083333 L9.19111111,9.28083333 L9.19111111,9.28083333 Z" id="Shape"></path>
                    <path d="M26.8586667,10.0193333 C26.8586667,11.9233333 26.336,13.4283333 25.2906667,14.5331667 C24.3543704,15.5166667 23.1917037,16.0078333 21.8038519,16.0078333 C20.3057778,16.0078333 19.2296296,15.4781667 18.5742222,14.4188333 L18.5268148,14.4188333 L18.5268148,20.3163333 L16,20.3163333 L16,8.24483333 C16,7.04783333 15.968,5.81933333 15.9063704,4.55933333 L18.1285926,4.55933333 L18.2696296,6.33383333 L18.317037,6.33383333 C19.1597037,4.99683333 20.4385185,4.3295 22.1546667,4.3295 C23.4962963,4.3295 24.6162963,4.851 25.5122963,5.89516667 C26.4106667,6.9405 26.8586667,8.31483333 26.8586667,10.0193333 L26.8586667,10.0193333 Z M24.2844444,10.1103333 C24.2844444,9.02066667 24.0355556,8.12233333 23.5354074,7.41533333 C22.989037,6.678 22.2554074,6.30933333 21.3357037,6.30933333 C20.7122963,6.30933333 20.1457778,6.51466667 19.6397037,6.9195 C19.1324444,7.32783333 18.8005926,7.861 18.6453333,8.52133333 C18.5671111,8.82933333 18.528,9.08133333 18.528,9.27966667 L18.528,11.1463333 C18.528,11.9606667 18.7816296,12.6478333 19.2888889,13.209 C19.7961481,13.7701667 20.4551111,14.0501667 21.2657778,14.0501667 C22.2174815,14.0501667 22.9582222,13.6885 23.488,12.9675 C24.018963,12.2453333 24.2844444,11.2933333 24.2844444,10.1103333 L24.2844444,10.1103333 Z" id="Shape"></path>
                    <path d="M39.9395556,10.0193333 C39.9395556,11.9233333 39.4168889,13.4283333 38.3703704,14.5331667 C37.4352593,15.5166667 36.2725926,16.0078333 34.8847407,16.0078333 C33.3866667,16.0078333 32.3105185,15.4781667 31.6562963,14.4188333 L31.6088889,14.4188333 L31.6088889,20.3163333 L29.0820741,20.3163333 L29.0820741,8.24483333 C29.0820741,7.04783333 29.0500741,5.81933333 28.9884444,4.55933333 L31.2106667,4.55933333 L31.3517037,6.33383333 L31.3991111,6.33383333 C32.2405926,4.99683333 33.5194074,4.3295 35.2367407,4.3295 C36.5771852,4.3295 37.6971852,4.851 38.5955556,5.89516667 C39.4903704,6.9405 39.9395556,8.31483333 39.9395556,10.0193333 L39.9395556,10.0193333 Z M37.3653333,10.1103333 C37.3653333,9.02066667 37.1152593,8.12233333 36.6151111,7.41533333 C36.0687407,6.678 35.3374815,6.30933333 34.4165926,6.30933333 C33.792,6.30933333 33.2266667,6.51466667 32.7194074,6.9195 C32.2121481,7.32783333 31.8814815,7.861 31.7262222,8.52133333 C31.6491852,8.82933333 31.6088889,9.08133333 31.6088889,9.27966667 L31.6088889,11.1463333 C31.6088889,11.9606667 31.8625185,12.6478333 32.3674074,13.209 C32.8746667,13.769 33.5336296,14.0501667 34.3466667,14.0501667 C35.2983704,14.0501667 36.0391111,13.6885 36.5688889,12.9675 C37.0998519,12.2453333 37.3653333,11.2933333 37.3653333,10.1103333 L37.3653333,10.1103333 Z" id="Shape"></path>
                    <path d="M54.5647407,11.4006667 C54.5647407,12.7213333 54.098963,13.7958333 53.1638519,14.6253333 C52.1362963,15.5318333 50.7057778,15.9845 48.8675556,15.9845 C47.1703704,15.9845 45.8097778,15.6625 44.7798519,15.0173333 L45.3653333,12.9441667 C46.4746667,13.6045 47.6918519,13.9358333 49.0180741,13.9358333 C49.9697778,13.9358333 50.7105185,13.7235 51.2426667,13.3011667 C51.7724444,12.8788333 52.0367407,12.3118333 52.0367407,11.6048333 C52.0367407,10.9748333 51.8186667,10.444 51.3813333,10.0135 C50.9463704,9.583 50.2198519,9.18283333 49.2053333,8.813 C46.4438519,7.79916667 45.0642963,6.314 45.0642963,4.361 C45.0642963,3.08466667 45.5478519,2.03816667 46.5161481,1.22383333 C47.4808889,0.408333333 48.768,0.00116666667 50.3774815,0.00116666667 C51.8127407,0.00116666667 53.005037,0.247333333 53.9567407,0.7385 L53.325037,2.76616667 C52.4361481,2.29016667 51.4311111,2.05216667 50.3063704,2.05216667 C49.4174815,2.05216667 48.722963,2.268 48.2251852,2.69733333 C47.8044444,3.08116667 47.5934815,3.549 47.5934815,4.10316667 C47.5934815,4.71683333 47.8340741,5.22433333 48.3176296,5.62333333 C48.7383704,5.992 49.5028148,6.391 50.6121481,6.8215 C51.9691852,7.35933333 52.9659259,7.98816667 53.6071111,8.70916667 C54.2459259,9.42783333 54.5647407,10.3273333 54.5647407,11.4006667 L54.5647407,11.4006667 Z" id="Shape"></path>
                    <path d="M62.9191111,6.426 L60.1339259,6.426 L60.1339259,11.8615 C60.1339259,13.244 60.6245926,13.9346667 61.6082963,13.9346667 C62.0598519,13.9346667 62.4343704,13.8961667 62.7306667,13.8191667 L62.8005926,15.708 C62.3028148,15.8911667 61.6474074,15.9833333 60.8355556,15.9833333 C59.8376296,15.9833333 59.0577778,15.6835 58.4948148,15.085 C57.9342222,14.4853333 57.6521481,13.4796667 57.6521481,12.0668333 L57.6521481,6.42366667 L55.9928889,6.42366667 L55.9928889,4.557 L57.6521481,4.557 L57.6521481,2.50716667 L60.1339259,1.76983333 L60.1339259,4.557 L62.9191111,4.557 L62.9191111,6.426 L62.9191111,6.426 Z" id="Shape"></path>
                    <path d="M75.4856296,10.0648333 C75.4856296,11.7856667 74.9854815,13.1985 73.9875556,14.3033333 C72.941037,15.4408333 71.552,16.0078333 69.8204444,16.0078333 C68.1517037,16.0078333 66.8231111,15.463 65.8322963,14.3733333 C64.8414815,13.2836667 64.3460741,11.9081667 64.3460741,10.2503333 C64.3460741,8.5155 64.8557037,7.0945 65.8785185,5.98966667 C66.898963,4.88366667 68.2761481,4.33066667 70.0077037,4.33066667 C71.6764444,4.33066667 73.0192593,4.8755 74.0325926,5.96633333 C75.0020741,7.0245 75.4856296,8.39066667 75.4856296,10.0648333 L75.4856296,10.0648333 Z M72.864,10.1453333 C72.864,9.11283333 72.64,8.22733333 72.1860741,7.48883333 C71.6562963,6.59516667 70.898963,6.1495 69.9176296,6.1495 C68.9019259,6.1495 68.1303704,6.59633333 67.6005926,7.48883333 C67.1466667,8.2285 66.9226667,9.128 66.9226667,10.192 C66.9226667,11.2245 67.1466667,12.11 67.6005926,12.8473333 C68.146963,13.741 68.9102222,14.1866667 69.8951111,14.1866667 C70.8598519,14.1866667 71.6171852,13.7316667 72.1635556,12.824 C72.6293333,12.0715 72.864,11.1766667 72.864,10.1453333 L72.864,10.1453333 Z" id="Shape"></path>
                    <path d="M83.698963,6.74683333 C83.4488889,6.70133333 83.1822222,6.678 82.9025185,6.678 C82.0136296,6.678 81.3262222,7.00816667 80.8426667,7.66966667 C80.4219259,8.253 80.210963,8.99033333 80.210963,9.8805 L80.210963,15.7546667 L77.6853333,15.7546667 L77.709037,8.085 C77.709037,6.79466667 77.677037,5.61983333 77.6142222,4.5605 L79.8151111,4.5605 L79.9075556,6.7025 L79.9774815,6.7025 C80.2441481,5.96633333 80.6648889,5.37366667 81.2408889,4.92916667 C81.8038519,4.529 82.4118519,4.3295 83.0672593,4.3295 C83.3007407,4.3295 83.5117037,4.34583333 83.698963,4.375 L83.698963,6.74683333 L83.698963,6.74683333 Z" id="Shape"></path>
                    <path d="M94.9997037,9.62733333 C94.9997037,10.073 94.9700741,10.4486667 94.9072593,10.7555 L87.3268148,10.7555 C87.3564444,11.8615 87.7226667,12.7073333 88.4266667,13.2906667 C89.0654815,13.8121667 89.8915556,14.0735 90.9060741,14.0735 C92.0284444,14.0735 93.0524444,13.8973333 93.9733333,13.5438333 L94.3691852,15.2705 C93.293037,15.7325 92.0225185,15.9623333 90.5564444,15.9623333 C88.7928889,15.9623333 87.4085926,15.4513333 86.4011852,14.4305 C85.3961481,13.4096667 84.8924444,12.0388333 84.8924444,10.3191667 C84.8924444,8.631 85.3605926,7.22516667 86.2980741,6.104 C87.2794074,4.907 88.6056296,4.3085 90.2743704,4.3085 C91.9134815,4.3085 93.1543704,4.907 93.997037,6.104 C94.6642963,7.05483333 94.9997037,8.23083333 94.9997037,9.62733333 L94.9997037,9.62733333 Z M92.5902222,8.98216667 C92.6068148,8.24483333 92.4420741,7.60783333 92.0995556,7.07 C91.6622222,6.37816667 90.9902222,6.03283333 90.0859259,6.03283333 C89.2598519,6.03283333 88.5878519,6.37 88.0746667,7.04666667 C87.6539259,7.5845 87.4038519,8.22966667 87.3268148,8.981 L92.5902222,8.981 L92.5902222,8.98216667 Z" id="Shape"></path>
                </g>
                <text id="Лучшее-2016" font-family=".SFNSText, .SF NS Text" font-size="19.8" font-weight="normal" fill="#FFFFFF">
                    <tspan x="30" y="31">Лучшее </tspan>
                    <tspan x="110.563184" y="31" font-family=".SFNSText-Bold, .SF NS Text" font-weight="bold">2016</tspan>
                </text>
                <rect id="Rectangle-3" fill="#FFFFFF" x="170" y="4" width="1" height="44"></rect>
            </g>
        </g>
    </g>
</svg>