<?xml version="1.0" encoding="UTF-8"?>
<svg width="343px" height="52px" viewBox="0 0 343 52" version="1.1" xmlns="http://www.w3.org/2000/svg" xmlns:xlink="http://www.w3.org/1999/xlink">
    <!-- Generator: Sketch 45 (43475) - http://www.bohemiancoding.com/sketch -->
    <title>Group 5</title>
    <desc>Created with Sketch.</desc>
    <defs>
        <linearGradient x1="0%" y1="50%" x2="81.0038158%" y2="50%" id="linearGradient-1">
            <stop stop-color="#2568EC" offset="0%"></stop>
            <stop stop-color="#2DC1F7" offset="100%"></stop>
        </linearGradient>
        <path d="M26,0 L317,0 L317,3.55271368e-15 C331.359403,9.15066634e-16 343,11.6405965 343,26 L343,26 L343,26 C343,40.3594035 331.359403,52 317,52 L292.765548,52 L26,52 L26,52 C11.6405965,52 1.75851975e-15,40.3594035 0,26 L0,26 L0,26 C-8.13537591e-15,11.6405965 11.6405965,-4.46778031e-15 26,-7.10542736e-15 Z" id="path-2"></path>
        <filter x="-3.9%" y="-26.0%" width="107.9%" height="151.9%" filterUnits="objectBoundingBox" id="filter-3">
            <feGaussianBlur stdDeviation="10.5" in="SourceAlpha" result="shadowBlurInner1"></feGaussianBlur>
            <feOffset dx="6" dy="-6" in="shadowBlurInner1" result="shadowOffsetInner1"></feOffset>
            <feComposite in="shadowOffsetInner1" in2="SourceAlpha" operator="arithmetic" k2="-1" k3="1" result="shadowInnerInner1"></feComposite>
            <feColorMatrix values="0 0 0 0 0   0 0 0 0 0   0 0 0 0 0  0 0 0 0.20813519 0" type="matrix" in="shadowInnerInner1"></feColorMatrix>
        </filter>
        <linearGradient x1="60.1573701%" y1="91.8476975%" x2="33.5579439%" y2="-59.5891331%" id="linearGradient-4">
            <stop stop-color="#D6FFA1" offset="0%"></stop>
            <stop stop-color="#93E2A7" offset="32.64%"></stop>
            <stop stop-color="#00A3B5" offset="100%"></stop>
        </linearGradient>
        <linearGradient x1="-32.1721676%" y1="-129.73572%" x2="80.1668869%" y2="113.997954%" id="linearGradient-5">
            <stop stop-color="#FF177B" offset="0%"></stop>
            <stop stop-color="#FFA976" offset="67.21%"></stop>
            <stop stop-color="#FFEC73" offset="100%"></stop>
        </linearGradient>
        <linearGradient x1="50.8193668%" y1="74.6634124%" x2="-0.0289932314%" y2="-29.3364075%" id="linearGradient-6">
            <stop stop-color="#63FFD4" offset="0%"></stop>
            <stop stop-color="#32A0BA" offset="48.54%"></stop>
            <stop stop-color="#1262A9" offset="83.49%"></stop>
            <stop stop-color="#064AA2" offset="100%"></stop>
        </linearGradient>
        <linearGradient x1="119.507988%" y1="35.5351563%" x2="-23.112411%" y2="61.0134747%" id="linearGradient-7">
            <stop stop-color="#FF4521" offset="0%"></stop>
            <stop stop-color="#D43E65" offset="34.11%"></stop>
            <stop stop-color="#9F36B9" offset="79.35%"></stop>
            <stop stop-color="#8A33DB" offset="100%"></stop>
        </linearGradient>
    </defs>
    <g id="Symbols" stroke="none" stroke-width="1" fill="none" fill-rule="evenodd">
        <g id="best-google-play">
            <g id="Group-5">
                <g id="Rectangle-33">
                    <use fill="url(#linearGradient-1)" fill-rule="evenodd" xlink:href="#path-2"></use>
                    <use fill="black" fill-opacity="1" filter="url(#filter-3)" xlink:href="#path-2"></use>
                </g>
                <g id="google-play-icon" transform="translate(184.000000, 10.000000)">
                    <polygon id="Shape" points="16.7249845 15.7666667 21.6183206 10.8933333 16.7249845 15.7666667 0.94945327 0.286666667 16.7249845 15.7666667 0.94945327 31.2466667 16.7249845 15.7666667 21.6913555 20.64"></polygon>
                    <path d="M21.6183206,10.8933333 L2.41015061,0.573333333 C1.89890654,0.286666667 1.38766247,0.215 0.94945327,0.358333333 L16.7249845,15.7666667 L21.6183206,10.8933333 L21.6183206,10.8933333 Z" id="Shape" fill="url(#linearGradient-4)"></path>
                    <path d="M21.6913555,20.64 L28.2644935,17.1283333 C29.5791211,16.4116667 29.5791211,15.265 28.2644935,14.5483333 L21.6913555,10.965 L16.7249845,15.7666667 L21.6913555,20.64 L21.6913555,20.64 Z" id="Shape" fill="url(#linearGradient-5)"></path>
                    <path d="M0.94945327,0.286666667 C0.365174335,0.501666667 0,1.075 0,1.935 L0,29.5983333 C0,30.4583333 0.365174335,31.0316667 0.94945327,31.2466667 L16.7249845,15.7666667 L0.94945327,0.286666667 L0.94945327,0.286666667 Z" id="Shape" fill="url(#linearGradient-6)"></path>
                    <path d="M0.94945327,31.2466667 C1.38766247,31.39 1.89890654,31.3183333 2.41015061,31.0316667 L21.6183206,20.64 L16.7249845,15.7666667 L0.94945327,31.2466667 L0.94945327,31.2466667 Z" id="Shape" fill="url(#linearGradient-7)"></path>
                </g>
                <g id="google-play" transform="translate(221.000000, 18.000000)" fill="#FFFFFF">
                    <polyline id="Fill-3" points="91.3738238 18.0846354 97.4813843 4.25520833 95.4921931 4.25520833 92.6672112 11.150263 92.6272805 11.150263 89.7228961 4.25520833 87.7332459 4.25520833 91.752018 13.2463018 89.4842299 18.0846354 91.3738238 18.0846354"></polyline>
                    <path d="M82.8591767,4.25520833 C80.4148345,4.25520833 79.2419538,5.68809229 78.9044869,6.55907848 L80.5734806,7.25586743 C80.911406,6.36522822 81.8852913,5.88149589 82.8990675,5.88149589 C84.2704851,5.88149589 85.4429074,6.75248208 85.4429074,8.18536603 L85.4429074,8.4564884 C85.0650912,8.24343178 84.1113805,7.87538428 82.7995698,7.87538428 C80.5138737,7.87538428 78.5266707,9.03714586 78.5266707,11.1860251 C78.5266707,13.1611538 80.1759483,14.3613281 82.1636098,14.3613281 C83.833062,14.3613281 84.8266635,13.5287547 85.3631258,12.7350406 L85.4429074,12.7350406 L85.4429074,14.0513464 L87.1916827,14.0513464 L87.1916827,8.32070388 C87.1916827,5.6492329 85.243912,4.25520833 82.8591767,4.25520833 L82.8591767,4.25520833 Z M82.4616444,12.7350406 C81.5079337,12.7350406 80.4345506,12.2316552 80.4345506,11.2248845 C80.4345506,10.3534517 81.1897245,9.34712761 83.117779,9.34712761 C84.6675589,9.34712761 85.4429074,9.9661978 85.4429074,9.9661978 C85.4429074,11.5152132 83.9123851,12.7350406 82.4616444,12.7350406 L82.4616444,12.7350406 Z" id="Fill-2"></path>
                    <polygon id="Fill-1" points="75.8188545 0.531901042 77.4435442 0.531901042 77.4435442 14.3613281 75.8188545 14.3613281"></polygon>
                    <path d="M69.7878432,0.531901042 L64.9875896,0.531901042 L64.9875896,14.3613281 L66.797499,14.3613281 L66.797499,8.76004253 L69.7878432,8.76004253 C72.1282902,8.76004253 74.1941648,7.06049573 74.1941648,4.64619459 C74.1941648,2.23189345 72.1282902,0.531901042 69.7878432,0.531901042 L69.7878432,0.531901042 Z M69.8268734,7.06049573 L66.797499,7.06049573 L66.797499,2.23189345 L69.8268734,2.23189345 C71.4398167,2.23189345 72.3447714,3.54509859 72.3447714,4.64619459 C72.3447714,5.74684498 71.4398167,7.06049573 69.8268734,7.06049573 L69.8268734,7.06049573 Z" id="Fill-4"></path>
                    <path d="M52.2530461,9.65199133 C52.198379,7.85520689 53.6921562,6.93963952 54.7672749,6.93963952 C55.605503,6.93963952 56.3157192,7.3447968 56.5526097,7.92566902 L52.2530461,9.65199133 L52.2530461,9.65199133 Z M54.9312761,14.4425357 C57.1357249,14.4425357 58.4108339,13.1389862 58.9392821,12.3819587 L57.2997261,11.3250266 C56.7530556,12.1001101 56.0059392,12.6109606 54.9312761,12.6109606 C53.8561574,12.6109606 53.0908187,12.1353412 52.5992707,11.2017179 L59.0303939,8.63029037 L58.8117256,8.10182436 C58.4108339,7.06294826 57.190392,5.14285508 54.6943855,5.14285508 C52.2166014,5.14285508 50.1579313,7.02771719 50.1579313,9.7929156 C50.1579313,12.3995742 52.198379,14.4425357 54.9312761,14.4425357 L54.9312761,14.4425357 Z" id="Fill-5"></path>
                    <polygon id="Path" points="47.0241426 14.1606872 49.1374797 14.1606872 49.1374797 0.493234945 47.0241426 0.493234945"></polygon>
                    <path d="M40.9934556,18.6165365 C38.6614503,18.6165365 37.2583293,17.1020409 36.7298811,15.8689536 L38.5703385,15.1295416 C38.8983408,15.8865691 39.6996687,16.7849613 40.9934556,16.7849613 C42.5783446,16.7849613 43.5623515,15.8337225 43.5623515,14.054994 L43.5623515,13.3856037 L43.4894621,13.3856037 C43.015681,13.9493008 42.1045634,14.4425357 40.9570109,14.4425357 C38.5521162,14.4425357 36.3476673,12.4171897 36.3476673,9.81053114 C36.3476673,7.18625699 38.5521162,5.14285508 40.9570109,5.14285508 C42.1045634,5.14285508 43.015681,5.63609002 43.4894621,6.18217157 L43.5623515,6.18217157 L43.5623515,5.42470362 L45.5663545,5.42470362 L45.5663545,13.7731455 C45.5663545,17.2077341 43.4712397,18.6165365 40.9934556,18.6165365 Z M41.1392344,12.6109606 C42.5783446,12.6109606 43.7081303,11.4307199 43.7081303,9.81053114 C43.7081303,8.1722865 42.5783446,6.97487059 41.1392344,6.97487059 C39.6814464,6.97487059 38.4610044,8.1722865 38.4610044,9.81053114 C38.4610044,11.4307199 39.6814464,12.6109606 41.1392344,12.6109606 Z" id="Path"></path>
                    <path d="M30.6449827,14.4425357 C27.984975,14.4425357 25.8169709,12.4700363 25.8169709,9.7929156 C25.8169709,7.09817933 27.984975,5.14285508 30.6449827,5.14285508 C33.3049903,5.14285508 35.4729945,7.09817933 35.4729945,9.7929156 C35.4729945,12.4700363 33.3049903,14.4425357 30.6449827,14.4425357 Z M30.6449827,12.6109606 C32.1023152,12.6109606 33.3596574,11.4483354 33.3596574,9.7929156 C33.3596574,8.1194399 32.1023152,6.97487059 30.6449827,6.97487059 C29.1871946,6.97487059 27.930308,8.1194399 27.930308,9.7929156 C27.930308,11.4483354 29.1871946,12.6109606 30.6449827,12.6109606 Z" id="Path"></path>
                    <path d="M20.1142862,14.4425357 C17.4542786,14.4425357 15.2858189,12.4700363 15.2858189,9.7929156 C15.2858189,7.09817933 17.4542786,5.14285508 20.1142862,5.14285508 C22.7742939,5.14285508 24.942298,7.09817933 24.942298,9.7929156 C24.942298,12.4700363 22.7742939,14.4425357 20.1142862,14.4425357 Z M20.1142862,12.6109606 C21.5716187,12.6109606 22.8289609,11.4483354 22.8289609,9.7929156 C22.8289609,8.1194399 21.5716187,6.97487059 20.1142862,6.97487059 C18.6564982,6.97487059 17.3996115,8.1194399 17.3996115,9.7929156 C17.3996115,11.4483354 18.6564982,12.6109606 20.1142862,12.6109606 Z" id="Path"></path>
                    <path d="M7.5791312,14.4425357 C9.80225798,14.4425357 11.4782587,13.7379144 12.7898124,12.4171897 C14.1382663,11.1136402 14.5573804,9.28206512 14.5573804,7.80236029 C14.5573804,7.3447968 14.5209357,6.92202399 14.4480463,6.56971331 L7.5791312,6.56971331 L7.5791312,8.54221271 L12.4618101,8.54221271 C12.3160313,9.65199133 11.9338174,10.4618655 11.3507022,11.0255626 C10.6400306,11.7125684 9.52846716,12.4700363 7.5791312,12.4700363 C4.5728989,12.4700363 2.22267122,10.1276107 2.22267122,7.22148806 C2.22267122,4.31536538 4.5728989,1.97293978 7.5791312,1.97293978 C9.20092041,1.97293978 10.3849176,2.58904307 11.2595905,3.38174209 L12.6987006,1.99055531 C11.4782587,0.863161154 9.85646947,0 7.5791312,0 C3.46179107,0 0,3.24081782 0,7.22148806 C0,11.2017179 3.46179107,14.4425357 7.5791312,14.4425357 L7.5791312,14.4425357 Z" id="Path"></path>
                </g>
                <text id="Лучшее-2016" font-family=".SFNSText, .SF NS Text" font-size="19.8" font-weight="normal" fill="#FFFFFF">
                    <tspan x="30" y="31">Лучшее </tspan>
                    <tspan x="110.563184" y="31" font-family=".SFNSText-Bold, .SF NS Text" font-weight="bold">2016</tspan>
                </text>
                <rect id="Rectangle-3" fill="#FFFFFF" x="170" y="4" width="1" height="44"></rect>
            </g>
        </g>
    </g>
</svg>