<svg width="208" height="58" viewBox="0 0 208 58" xmlns="http://www.w3.org/2000/svg"><defs><linearGradient x1="60.157%" y1="91.848%" x2="33.558%" y2="-59.589%" id="a"><stop stop-color="#D6FFA1" offset="0%"/><stop stop-color="#93E2A7" offset="32.64%"/><stop stop-color="#00A3B5" offset="100%"/></linearGradient><linearGradient x1="-32.172%" y1="-129.736%" x2="80.167%" y2="113.998%" id="b"><stop stop-color="#FF177B" offset="0%"/><stop stop-color="#FFA976" offset="67.21%"/><stop stop-color="#FFEC73" offset="100%"/></linearGradient><linearGradient x1="50.819%" y1="74.663%" x2="-.029%" y2="-29.336%" id="c"><stop stop-color="#63FFD4" offset="0%"/><stop stop-color="#32A0BA" offset="48.54%"/><stop stop-color="#1262A9" offset="83.49%"/><stop stop-color="#064AA2" offset="100%"/></linearGradient><linearGradient x1="119.508%" y1="35.535%" x2="-23.112%" y2="61.013%" id="d"><stop stop-color="#FF4521" offset="0%"/><stop stop-color="#D43E65" offset="34.11%"/><stop stop-color="#9F36B9" offset="79.35%"/><stop stop-color="#8A33DB" offset="100%"/></linearGradient></defs><g fill="none" fill-rule="evenodd"><path d="M26.663 13.617L2.973.717C2.342.358 1.71.269 1.17.447l19.456 19.261 6.036-6.091z" fill="url(#a)" transform="translate(.313 17.938)"/><path d="M26.753 25.8l8.107-4.39c1.62-.895 1.62-2.329 0-3.225l-8.107-4.479-6.126 6.002 6.126 6.092z" fill="url(#b)" transform="translate(.313 17.938)"/><path d="M1.171.358C.451.628 0 1.344 0 2.418v34.58c0 1.075.45 1.792 1.171 2.06l19.456-19.35L1.171.358z" fill="url(#c)" transform="translate(.313 17.938)"/><path d="M1.171 39.058c.54.18 1.171.09 1.802-.268l23.69-12.99-6.036-6.092-19.456 19.35z" fill="url(#d)" transform="translate(.313 17.938)"/><g fill="#FFF"><path d="M196.43 52.875l10.158-23.292h-3.309l-4.698 11.613h-.067l-4.83-11.613h-3.31l6.684 15.143-3.772 8.149h3.143M182.267 29.583c-4.065 0-6.016 2.414-6.578 3.88l2.776 1.174c.563-1.5 2.182-2.315 3.869-2.315 2.28 0 4.23 1.467 4.23 3.88v.457c-.628-.359-2.214-.979-4.396-.979-3.802 0-7.107 1.957-7.107 5.576 0 3.327 2.743 5.348 6.05 5.348 2.776 0 4.429-1.402 5.32-2.739h.134v2.217h2.908V36.43c0-4.499-3.24-6.847-7.206-6.847zm-.661 14.282c-1.586 0-3.372-.848-3.372-2.543 0-1.468 1.256-3.163 4.463-3.163 2.578 0 3.868 1.043 3.868 1.043 0 2.609-2.546 4.663-4.959 4.663zM170.557 23.313h2.703v23.291h-2.703zM160.526 23.313h-7.984v23.291h3.01V37.17h4.974c3.893 0 7.329-2.862 7.329-6.928s-3.436-6.93-7.329-6.93zm.065 10.995h-5.039v-8.132h5.039c2.683 0 4.188 2.211 4.188 4.066 0 1.854-1.505 4.066-4.188 4.066zM131.361 38.673c-.09-3.027 2.394-4.569 4.182-4.569 1.394 0 2.575.683 2.97 1.661l-7.152 2.908zm4.455 8.068c3.666 0 5.787-2.196 6.666-3.47l-2.727-1.78c-.91 1.305-2.152 2.165-3.94 2.165-1.788 0-3.06-.8-3.878-2.373l10.697-4.331-.364-.89c-.667-1.75-2.697-4.984-6.848-4.984-4.122 0-7.546 3.175-7.546 7.832 0 4.39 3.394 7.83 7.94 7.83zM122.664 46.266h3.515V23.247h-3.515zM112.633 53.77c-3.878 0-6.212-2.55-7.091-4.627l3.061-1.245c.546 1.275 1.878 2.788 4.03 2.788 2.636 0 4.273-1.602 4.273-4.598v-1.127h-.121c-.788.95-2.304 1.78-4.212 1.78-4 0-7.667-3.411-7.667-7.801 0-4.42 3.667-7.862 7.667-7.862 1.908 0 3.424.831 4.212 1.75h.121v-1.275h3.333v14.06c0 5.785-3.484 8.158-7.606 8.158zm.243-10.114c2.393 0 4.273-1.988 4.273-4.716 0-2.76-1.88-4.776-4.273-4.776-2.425 0-4.455 2.017-4.455 4.776 0 2.728 2.03 4.716 4.455 4.716zM95.421 46.74c-4.424 0-8.03-3.321-8.03-7.83 0-4.539 3.606-7.832 8.03-7.832 4.424 0 8.03 3.293 8.03 7.832 0 4.509-3.606 7.83-8.03 7.83zm0-3.084c2.424 0 4.515-1.958 4.515-4.746 0-2.818-2.091-4.746-4.515-4.746-2.425 0-4.515 1.928-4.515 4.746 0 2.788 2.09 4.746 4.515 4.746zM77.906 46.74c-4.425 0-8.031-3.321-8.031-7.83 0-4.539 3.606-7.832 8.03-7.832 4.425 0 8.031 3.293 8.031 7.832 0 4.509-3.606 7.83-8.03 7.83zm0-3.084c2.424 0 4.515-1.958 4.515-4.746 0-2.818-2.091-4.746-4.515-4.746-2.425 0-4.515 1.928-4.515 4.746 0 2.788 2.09 4.746 4.515 4.746zM57.056 46.74c3.698 0 6.486-1.186 8.667-3.41 2.243-2.196 2.94-5.28 2.94-7.773 0-.77-.06-1.482-.182-2.076H57.056v3.323h8.122c-.243 1.869-.879 3.233-1.848 4.182-1.182 1.157-3.031 2.433-6.274 2.433-5 0-8.909-3.945-8.909-8.84 0-4.894 3.91-8.84 8.91-8.84 2.697 0 4.666 1.038 6.121 2.373l2.394-2.343c-2.03-1.899-4.728-3.352-8.516-3.352-6.848 0-12.606 5.458-12.606 12.162 0 6.704 5.758 12.162 12.606 12.162z"/></g><path d="M53.436 10.165a3.275 3.275 0 0 1-1.193.941c-.303.147-.666.27-1.091.371-.425.1-.923.15-1.495.15a4.64 4.64 0 0 1-1.77-.328 3.836 3.836 0 0 1-1.383-.952 4.343 4.343 0 0 1-.897-1.533c-.214-.607-.32-1.3-.32-2.079v-.671c0-.775.096-1.467.288-2.076.192-.608.47-1.123.83-1.543.362-.42.803-.74 1.323-.959.521-.219 1.112-.329 1.774-.329.624 0 1.168.08 1.632.242.465.16.857.386 1.176.675.319.29.57.634.753 1.033a4.5 4.5 0 0 1 .365 1.312h-1.745a2.976 2.976 0 0 0-.21-.735 1.788 1.788 0 0 0-.406-.58 1.826 1.826 0 0 0-.633-.386 2.577 2.577 0 0 0-.897-.14c-.418 0-.78.077-1.087.231-.308.154-.563.38-.767.675-.205.297-.357.66-.458 1.092a6.5 6.5 0 0 0-.151 1.474v.685c0 .56.06 1.056.183 1.488.122.431.297.794.524 1.088.228.294.504.518.83.672.327.154.696.23 1.109.23.305 0 .566-.02.785-.059.218-.04.402-.09.552-.15a1.635 1.635 0 0 0 .605-.406V7.603h-2.111V6.26h3.885v3.906zm7.945-3.227h-4.209v3.136h4.92v1.414h-6.7V1.298h6.65v1.427h-4.87V5.54h4.209v1.4zm9.563-4.213H67.75v8.763h-1.766V2.725h-3.167V1.297h8.128v1.428zm6.812 8.763h-1.773V1.298h1.773v10.19zm9.592-8.763h-3.195v8.763h-1.766V2.725H79.22V1.297h8.128v1.428zm13.11 3.933c0 .775-.102 1.469-.306 2.083a4.529 4.529 0 0 1-.862 1.56c-.37.427-.816.755-1.337.984a4.26 4.26 0 0 1-1.731.342 4.243 4.243 0 0 1-1.724-.342 3.84 3.84 0 0 1-1.348-.984 4.52 4.52 0 0 1-.88-1.56c-.208-.614-.313-1.308-.313-2.083V6.14c0-.774.105-1.47.313-2.085a4.62 4.62 0 0 1 .873-1.568c.373-.43.82-.758 1.34-.987a4.243 4.243 0 0 1 1.725-.343c.633 0 1.211.115 1.734.343.523.229.971.558 1.344.987.373.43.662.952.866 1.568.204.616.306 1.311.306 2.085v.518zm-1.78-.532c0-.569-.055-1.071-.166-1.508a3.208 3.208 0 0 0-.482-1.095 2.086 2.086 0 0 0-.777-.668 2.33 2.33 0 0 0-1.045-.228c-.38 0-.723.076-1.028.228a2.123 2.123 0 0 0-.777.668 3.261 3.261 0 0 0-.493 1.095 5.945 5.945 0 0 0-.172 1.508v.532c0 .57.057 1.074.172 1.512.115.439.28.806.496 1.102.216.297.478.52.785.672.307.152.65.228 1.03.228.789 0 1.395-.299 1.82-.896.424-.597.637-1.47.637-2.618v-.532zm11.682 5.362h-1.78l-4.568-7.23v7.23h-1.78V1.298h1.78l4.581 7.257V1.297h1.767v10.19z" fill="#FFF"/></g></svg>