<?xml version="1.0" encoding="UTF-8"?>
<svg width="208px" height="58px" viewBox="0 0 208 58" version="1.1" xmlns="http://www.w3.org/2000/svg" xmlns:xlink="http://www.w3.org/1999/xlink">
    <defs>
        <linearGradient x1="60.1573701%" y1="91.8476975%" x2="33.5579439%" y2="-59.5891331%" id="linearGradient-1">
            <stop stop-color="#D6FFA1" offset="0%"></stop>
            <stop stop-color="#93E2A7" offset="32.64%"></stop>
            <stop stop-color="#00A3B5" offset="100%"></stop>
        </linearGradient>
        <linearGradient x1="-32.1721676%" y1="-129.73572%" x2="80.1668869%" y2="113.997954%" id="linearGradient-2">
            <stop stop-color="#FF177B" offset="0%"></stop>
            <stop stop-color="#FFA976" offset="67.21%"></stop>
            <stop stop-color="#FFEC73" offset="100%"></stop>
        </linearGradient>
        <linearGradient x1="50.8193668%" y1="74.6634124%" x2="-0.0289932314%" y2="-29.3364075%" id="linearGradient-3">
            <stop stop-color="#63FFD4" offset="0%"></stop>
            <stop stop-color="#32A0BA" offset="48.54%"></stop>
            <stop stop-color="#1262A9" offset="83.49%"></stop>
            <stop stop-color="#064AA2" offset="100%"></stop>
        </linearGradient>
        <linearGradient x1="119.507988%" y1="35.5351563%" x2="-23.112411%" y2="61.0134747%" id="linearGradient-4">
            <stop stop-color="#FF4521" offset="0%"></stop>
            <stop stop-color="#D43E65" offset="34.11%"></stop>
            <stop stop-color="#9F36B9" offset="79.35%"></stop>
            <stop stop-color="#8A33DB" offset="100%"></stop>
        </linearGradient>
    </defs>
    <g id="Symbols" stroke="none" stroke-width="1" fill="none" fill-rule="evenodd">
        <g id="Google-play-bage">
            <g id="icon-+-Google-play-+-Get-it-on" transform="translate(0.312977, 0.916667)">
                <g id="google-play-icon" transform="translate(-0.000000, 17.020833)">
                    <path d="M26.6625954,13.6166667 L2.97251908,0.716666667 C2.34198473,0.358333333 1.71145038,0.26875 1.17099237,0.447916667 L20.6274809,19.7083333 L26.6625954,13.6166667 L26.6625954,13.6166667 Z" id="Shape" fill="url(#linearGradient-1)"></path>
                    <path d="M26.7526718,25.8 L34.859542,21.4104167 C36.480916,20.5145833 36.480916,19.08125 34.859542,18.1854167 L26.7526718,13.70625 L20.6274809,19.7083333 L26.7526718,25.8 L26.7526718,25.8 Z" id="Shape" fill="url(#linearGradient-2)"></path>
                    <path d="M1.17099237,0.358333333 C0.450381679,0.627083333 0,1.34375 0,2.41875 L0,36.9979167 C0,38.0729167 0.450381679,38.7895833 1.17099237,39.0583333 L20.6274809,19.7083333 L1.17099237,0.358333333 L1.17099237,0.358333333 Z" id="Shape" fill="url(#linearGradient-3)"></path>
                    <path d="M1.17099237,39.0583333 C1.71145038,39.2375 2.34198473,39.1479167 2.97251908,38.7895833 L26.6625954,25.8 L20.6274809,19.7083333 L1.17099237,39.0583333 L1.17099237,39.0583333 Z" id="Shape" fill="url(#linearGradient-4)"></path>
                </g>
                <g id="google-play" transform="translate(44.137405, 21.500000)" fill="#FFFFFF">
                    <polyline id="Fill-3" points="151.978911 30.4583333 162.137405 7.16666667 158.828852 7.16666667 154.130157 18.7793904 154.063742 18.7793904 149.23298 7.16666667 145.923664 7.16666667 152.607948 22.309561 148.836015 30.4583333 151.978911 30.4583333"></polyline>
                    <path d="M137.816794,7.16666667 C133.751204,7.16666667 131.800392,9.5799449 131.239096,11.046869 L134.015075,12.2204083 C134.577134,10.7203844 136.196964,9.90567728 137.883143,9.90567728 C140.164174,9.90567728 142.114223,11.3726014 142.114223,13.7858796 L142.114223,14.2425068 C141.485815,13.8836746 139.899541,13.2638051 137.717652,13.2638051 C133.915933,13.2638051 130.610687,15.2204562 130.610687,18.8396213 C130.610687,22.1661538 133.353873,24.1875 136.659882,24.1875 C139.436624,24.1875 141.089246,22.785271 141.981526,21.4484894 L142.114223,21.4484894 L142.114223,23.6654255 L145.022901,23.6654255 L145.022901,14.0138171 C145.022901,9.51449752 141.783241,7.16666667 137.816794,7.16666667 L137.816794,7.16666667 Z M137.155592,21.4484894 C135.569318,21.4484894 133.783997,20.6006825 133.783997,18.9050687 C133.783997,17.4373923 135.040052,15.7425307 138.246918,15.7425307 C140.824613,15.7425307 142.114223,16.7851752 142.114223,16.7851752 C142.114223,19.3940434 139.568559,21.4484894 137.155592,21.4484894 L137.155592,21.4484894 Z" id="Fill-2"></path>
                    <polygon id="Fill-1" points="126.10687 0.895833333 128.80916 0.895833333 128.80916 24.1875 126.10687 24.1875"></polygon>
                    <path d="M116.075698,0.895833333 L108.091603,0.895833333 L108.091603,24.1875 L111.101963,24.1875 L111.101963,14.7537558 L116.075698,14.7537558 C119.968483,14.7537558 123.40458,11.8913612 123.40458,7.82516984 C123.40458,3.75897844 119.968483,0.895833333 116.075698,0.895833333 L116.075698,0.895833333 Z M116.140616,11.8913612 L111.101963,11.8913612 L111.101963,3.75897844 L116.140616,3.75897844 C118.823369,3.75897844 120.328548,5.97069236 120.328548,7.82516984 C120.328548,9.67889681 118.823369,11.8913612 116.140616,11.8913612 L116.140616,11.8913612 Z" id="Fill-4"></path>
                    <path d="M86.9106787,16.2559854 C86.8197529,13.2298221 89.3043007,11.6878139 91.0925083,11.6878139 C92.4867041,11.6878139 93.6679819,12.3701841 94.0619937,13.3484952 L86.9106787,16.2559854 L86.9106787,16.2559854 Z M91.3652857,24.3242707 C95.031869,24.3242707 97.1527136,22.1288189 98.0316631,20.8538251 L95.3046465,19.0737291 C94.3953884,20.3791329 93.1527356,21.2395126 91.3652857,21.2395126 C89.5770781,21.2395126 88.3041167,20.4384694 87.4865422,18.8660512 L98.1832061,14.5352259 L97.8195029,13.6451779 C97.1527136,11.8954918 95.1227949,8.66165066 90.9712739,8.66165066 C86.8500615,8.66165066 83.425947,11.8361553 83.425947,16.4933315 C83.425947,20.8834934 86.8197529,24.3242707 91.3652857,24.3242707 L91.3652857,24.3242707 Z" id="Fill-5"></path>
                    <polygon id="Path" points="78.2136249 23.8495784 81.7286652 23.8495784 81.7286652 0.830711486 78.2136249 0.830711486"></polygon>
                    <path d="M68.1829925,31.3541667 C64.3042489,31.3541667 61.9704865,28.8034374 61.091537,26.7266587 L64.1527059,25.4813331 C64.6982608,26.7563269 66.0310816,28.2694086 68.1829925,28.2694086 C70.8190833,28.2694086 72.4557479,26.6673221 72.4557479,23.6715688 L72.4557479,22.5441747 L72.3345135,22.5441747 C71.5464898,23.4935592 70.0310596,24.3242707 68.1223753,24.3242707 C64.1223973,24.3242707 60.455814,20.9131617 60.455814,16.5229998 C60.455814,12.1031697 64.1223973,8.66165066 68.1223753,8.66165066 C70.0310596,8.66165066 71.5464898,9.49236215 72.3345135,10.4120784 L72.4557479,10.4120784 L72.4557479,9.13634294 L75.7889366,9.13634294 L75.7889366,23.1968766 C75.7889366,28.981447 72.3042049,31.3541667 68.1829925,31.3541667 Z M68.4254613,21.2395126 C70.8190833,21.2395126 72.6982167,19.2517387 72.6982167,16.5229998 C72.6982167,13.7638509 70.8190833,11.7471505 68.4254613,11.7471505 C66.000773,11.7471505 63.9708543,13.7638509 63.9708543,16.5229998 C63.9708543,19.2517387 66.000773,21.2395126 68.4254613,21.2395126 Z" id="Path"></path>
                    <path d="M50.9707365,24.3242707 C46.5464381,24.3242707 42.9404719,21.0021665 42.9404719,16.4933315 C42.9404719,11.9548283 46.5464381,8.66165066 50.9707365,8.66165066 C55.3950349,8.66165066 59.001001,11.9548283 59.001001,16.4933315 C59.001001,21.0021665 55.3950349,24.3242707 50.9707365,24.3242707 Z M50.9707365,21.2395126 C53.3946671,21.2395126 55.4859607,19.281407 55.4859607,16.4933315 C55.4859607,13.6748461 53.3946671,11.7471505 50.9707365,11.7471505 C48.5460482,11.7471505 46.4555123,13.6748461 46.4555123,16.4933315 C46.4555123,19.281407 48.5460482,21.2395126 50.9707365,21.2395126 Z" id="Path"></path>
                    <path d="M33.4553944,24.3242707 C29.031096,24.3242707 25.4243722,21.0021665 25.4243722,16.4933315 C25.4243722,11.9548283 29.031096,8.66165066 33.4553944,8.66165066 C37.8796928,8.66165066 41.485659,11.9548283 41.485659,16.4933315 C41.485659,21.0021665 37.8796928,24.3242707 33.4553944,24.3242707 Z M33.4553944,21.2395126 C35.879325,21.2395126 37.9706187,19.281407 37.9706187,16.4933315 C37.9706187,13.6748461 35.879325,11.7471505 33.4553944,11.7471505 C31.0307061,11.7471505 28.9401702,13.6748461 28.9401702,16.4933315 C28.9401702,19.281407 31.0307061,21.2395126 33.4553944,21.2395126 Z" id="Path"></path>
                    <path d="M12.606106,24.3242707 C16.3037556,24.3242707 19.0913894,23.13754 21.2728512,20.9131617 C23.5156879,18.7177099 24.2127857,15.6329518 24.2127857,13.1408173 C24.2127857,12.3701841 24.1521685,11.6581457 24.0309341,11.0647803 L12.606106,11.0647803 L12.606106,14.3868846 L20.7272963,14.3868846 C20.4848275,16.2559854 19.8491045,17.619984 18.8792292,18.5693685 C17.6971937,19.726431 15.8483689,21.0021665 12.606106,21.0021665 C7.60594409,21.0021665 3.69689193,17.0570286 3.69689193,12.1625062 C3.69689193,7.2679838 7.60594409,3.32284595 12.606106,3.32284595 C15.3035717,3.32284595 17.2728732,4.3604936 18.7276862,5.69556563 L21.1213082,3.35251421 C19.0913894,1.4537451 16.3939237,0 12.606106,0 C5.75787698,0 0,5.45821949 0,12.1625062 C0,18.8660512 5.75787698,24.3242707 12.606106,24.3242707 L12.606106,24.3242707 Z" id="Path"></path>
                </g>
                <path d="M53.1225245,9.24808131 C53.01462,9.38805596 52.8644943,9.54319222 52.6721428,9.71349472 C52.4797913,9.88379722 52.2323185,10.0424328 51.9297168,10.1894062 C51.6271151,10.3363796 51.2635293,10.460022 50.8389486,10.5603372 C50.414368,10.6606523 49.9159036,10.7108092 49.3435407,10.7108092 C48.7008053,10.7108092 48.1108581,10.601164 47.5736815,10.3818704 C47.0365048,10.1625767 46.5755719,9.84530561 46.190869,9.43004745 C45.806166,9.0147893 45.5070874,8.50388946 45.2936242,7.89733261 C45.080161,7.29077576 44.973431,6.59791159 44.973431,5.81871933 L44.973431,5.14684433 C44.973431,4.37231789 45.0696053,3.68062016 45.2619567,3.0717304 C45.4543082,2.46284063 45.7311025,1.94844148 46.092348,1.5285175 C46.4535934,1.10859353 46.8945877,0.788989521 47.4153442,0.56969589 C47.9361006,0.350402259 48.5272206,0.240757088 49.188722,0.240757088 C49.8126914,0.240757088 50.3568972,0.321241309 50.8213556,0.482212166 C51.285814,0.643183023 51.6775483,0.868305555 51.9965703,1.15758651 C52.3155922,1.44686748 52.5665837,1.79096668 52.7495522,2.18989446 C52.9325206,2.58882223 53.0544978,3.02623648 53.1154873,3.50215032 L51.3702583,3.50215032 C51.3280348,3.23619847 51.2576633,2.99124649 51.1591419,2.76728704 C51.0606204,2.54332758 50.9257418,2.34969888 50.7545021,2.18639511 C50.5832623,2.02309134 50.372148,1.89478316 50.1211528,1.80146672 C49.8701576,1.70815028 49.571079,1.66149276 49.2239081,1.66149276 C48.8063646,1.66149276 48.4439518,1.73847767 48.1366586,1.8924498 C47.8293654,2.04642192 47.5736825,2.27154445 47.3696023,2.56782415 C47.165522,2.86410384 47.0130506,3.22803249 46.9121834,3.65962102 C46.8113161,4.09120955 46.7608833,4.58227994 46.7608833,5.13284693 L46.7608833,5.81871933 C46.7608833,6.37861796 46.8218719,6.87435411 46.9438508,7.30594263 C47.0658298,7.73753116 47.2405855,8.10029338 47.4681233,8.39424016 C47.695661,8.68818694 47.9724553,8.91214304 48.2985145,9.06611516 C48.6245737,9.22008728 48.9940237,9.29707219 49.4068756,9.29707219 C49.7118231,9.29707219 49.9733703,9.27724275 50.191525,9.23758326 C50.4096797,9.19792377 50.5938183,9.14776694 50.7439463,9.08711125 C50.8940742,9.02645557 51.0172242,8.9599686 51.1134,8.88764836 C51.2095757,8.81532812 51.2881571,8.74650828 51.3491466,8.68118678 L51.3491466,6.68655787 L49.2379825,6.68655787 L49.2379825,5.34280787 L53.1225245,5.34280787 L53.1225245,9.24808131 Z M61.0675388,6.02168157 L56.859285,6.02168157 L56.859285,9.15709823 L61.7782974,9.15709823 L61.7782974,10.5708352 L55.0788699,10.5708352 L55.0788699,0.380731046 L61.7290369,0.380731046 L61.7290369,1.80846542 L56.859285,1.80846542 L56.859285,4.62194198 L61.0675388,4.62194198 L61.0675388,6.02168157 Z M70.6311123,1.80846542 L67.4362172,1.80846542 L67.4362172,10.5708352 L65.6698766,10.5708352 L65.6698766,1.80846542 L62.5031304,1.80846542 L62.5031304,0.380731046 L70.6311123,0.380731046 L70.6311123,1.80846542 Z M77.4431352,10.5708352 L75.6697573,10.5708352 L75.6697573,0.380731046 L77.4431352,0.380731046 L77.4431352,10.5708352 Z M87.0348575,1.80846542 L83.8399625,1.80846542 L83.8399625,10.5708352 L82.0736218,10.5708352 L82.0736218,1.80846542 L78.9068756,1.80846542 L78.9068756,0.380731046 L87.0348575,0.380731046 L87.0348575,1.80846542 Z M100.145187,5.74173365 C100.145187,6.51626009 100.043148,7.2102907 99.8390679,7.82384628 C99.6349877,8.43740187 99.3476377,8.95763321 98.9770092,9.38455592 C98.6063808,9.81147862 98.160695,10.1392477 97.6399386,10.367873 C97.1191822,10.5964982 96.5421364,10.7108092 95.908784,10.7108092 C95.2801231,10.7108092 94.7054231,10.5964982 94.1846667,10.367873 C93.6639103,10.1392477 93.2147059,9.81147862 92.8370402,9.38455592 C92.4593745,8.95763321 92.1661602,8.43740187 91.9573885,7.82384628 C91.7486168,7.2102907 91.6442325,6.51626009 91.6442325,5.74173365 L91.6442325,5.22383 C91.6442325,4.44930356 91.7486168,3.75410652 91.9573885,3.13821803 C92.1661602,2.52232953 92.4570288,1.99976531 92.830003,1.57050969 C93.2029772,1.14125407 93.6498358,0.812318561 94.1705922,0.583693286 C94.6913487,0.355068011 95.2660487,0.240757088 95.8947096,0.240757088 C96.528062,0.240757088 97.1062806,0.355068011 97.6293828,0.583693286 C98.152485,0.812318561 98.6005164,1.14125407 98.9734906,1.57050969 C99.3464648,1.99976531 99.6349877,2.52232953 99.8390679,3.13821803 C100.043148,3.75410652 100.145187,4.44930356 100.145187,5.22383 L100.145187,5.74173365 Z M98.3647716,5.20983261 C98.3647716,4.64060233 98.3096473,4.13786756 98.1993971,3.70161321 C98.0891469,3.26535886 97.9284654,2.90026377 97.717348,2.60631698 C97.5062305,2.3123702 97.2470291,2.08958055 96.9397359,1.93794133 C96.6324426,1.78630212 96.2841041,1.71048365 95.8947096,1.71048365 C95.5146982,1.71048365 95.1722239,1.78630212 94.8672764,1.93794133 C94.562329,2.08958055 94.3031275,2.3123702 94.0896643,2.60631698 C93.8762011,2.90026377 93.7120011,3.26535886 93.5970593,3.70161321 C93.4821176,4.13786756 93.4246476,4.64060233 93.4246476,5.20983261 L93.4246476,5.74173365 C93.4246476,6.31096393 93.4821176,6.81486514 93.5970593,7.2534524 C93.7120011,7.69203966 93.8773739,8.05946763 94.0931829,8.35574732 C94.3089919,8.65202702 94.570539,8.87598311 94.8778322,9.02762232 C95.1851254,9.17926154 95.5287726,9.25508 95.908784,9.25508 C96.6969559,9.25508 97.3033231,8.95647188 97.7279038,8.35924667 C98.1524845,7.76202146 98.3647716,6.88952585 98.3647716,5.74173365 L98.3647716,5.20983261 Z M110.046546,10.5708352 L108.266131,10.5708352 L103.69898,3.34118026 L103.69898,10.5708352 L101.918565,10.5708352 L101.918565,0.380731046 L103.69898,0.380731046 L108.280206,7.63838079 L108.280206,0.380731046 L110.046546,0.380731046 L110.046546,10.5708352 Z" id="GET-IT-ON" fill="#FFFFFF"></path>
            </g>
        </g>
    </g>
</svg>