<svg class="header-logo" viewBox="0 0 215 46" xmlns="http://www.w3.org/2000/svg"><defs><linearGradient x1=".1%" y1="49.984%" x2="99.91%" y2="49.984%" id="a"><stop stop-color="#815333" offset="0%"/><stop stop-color="#6A3B21" offset="100%"/></linearGradient><linearGradient x1="-.002%" y1="34.17%" x2="86.244%" y2="61.419%" id="b"><stop stop-color="#925A32" offset="0%"/><stop stop-color="#CD956A" offset="100%"/></linearGradient><linearGradient x1="60.467%" y1="13.644%" x2="39.421%" y2="86.569%" id="c"><stop stop-color="#D49764" offset="0%"/><stop stop-color="#F9E3BC" offset="100%"/></linearGradient></defs><g fill="none" fill-rule="evenodd"><path fill="#D7D6D6" fill-rule="nonzero" d="M39.996 34.5L19.969 46 0 34.5v-23L19.97 0l20.026 11.5z"/><path fill="url(#a)" fill-rule="nonzero" d="M39.996 11.5L19.969 23v23l20.027-11.5z"/><path fill="url(#b)" fill-rule="nonzero" d="M0 11.5v23L19.97 46V23z"/><path fill="url(#c)" fill-rule="nonzero" d="M19.97 0l20.026 11.5L19.969 23 0 11.5z"/><path fill="#D4B195" fill-rule="nonzero" d="M10.042 30.188l9.927 5.922 9.985-5.922v.23l-9.985 5.922-9.927-5.923v-.23M14.544 19.78h-1.847v.23h1.847v-.23M27.299 19.78h-1.905v.23l1.905-.058v-.115"/><g fill-rule="nonzero" fill="#010101"><path d="M19.97 11.96l-1.386 1.61v20.528h2.828V13.57z"/><path d="M23.143 15.928L19.97 9.544l-3.174 6.383h3.174zM19.97 32.833l-7.273-4.313v-8.74h1.847l-4.502-5.06v15.468l9.927 5.922z"/><path d="M19.97 32.833l7.329-4.313v-8.74h-1.905l4.56-5.06v15.468l-9.985 5.922z"/></g><text font-family="SF UI Display, San Francisco" font-size="26.77"><tspan x="57" y="30" fill="#FFF">QUBE.</tspan> <tspan x="133.152" y="30" fill="#D59967">TRADE</tspan></text></g></svg>